<?xml version="1.0" encoding="utf-8"?>
<!-- Generator: Adobe Illustrator 27.5.0, SVG Export Plug-In . SVG Version: 6.00 Build 0)  -->
<svg version="1.1" xmlns="http://www.w3.org/2000/svg" xmlns:xlink="http://www.w3.org/1999/xlink" x="0px" y="0px"
	 viewBox="0 0 2000 2000" style="enable-background:new 0 0 2000 2000;" xml:space="preserve">
<g id="BACKGROUND">
	<linearGradient id="SVGID_1_" gradientUnits="userSpaceOnUse" x1="1005.8359" y1="1.0549" x2="998.2748" y2="1267.3861">
		<stop  offset="0.1399" style="stop-color:#92C6CA"/>
		<stop  offset="0.4143" style="stop-color:#F9DFC0"/>
	</linearGradient>
	<rect x="3.958" y="1.494" style="fill:url(#SVGID_1_);" width="1991.84" height="1994.674"/>
	<g style="opacity:0.59;">
		<path style="opacity:0.32;fill:#DFEEE3;" d="M3.958,7.697v102.214c383.397,17.092,1560.136,92.514,1992.964,111.292v-52.298
			C1230.89,118.534,741.902,73.448,3.958,7.697z"/>
		<path style="opacity:0.32;fill:#DFEEE3;" d="M3.958,202.564v83.911c115.266,4.708,1354.291,108.08,1992.964,213.871V247.043
			C969.27,231.177,467.098,221.285,3.958,202.564z"/>
		<path style="opacity:0.32;fill:#DFEEE3;" d="M3.958,318.173v108.77c512.061,74.042,1074.827,158.593,1992.964,239.87v-56.429
			C1396.042,519.065,101.567,331.508,3.958,318.173z"/>
	</g>
	<g style="opacity:0.49;">
		
			<linearGradient id="SVGID_00000018916944692270202640000014480979271522914202_" gradientUnits="userSpaceOnUse" x1="682.0674" y1="310.7151" x2="983.5303" y2="9.2522">
			<stop  offset="0" style="stop-color:#92C6CA"/>
			<stop  offset="0.0723" style="stop-color:#9EC9C9"/>
			<stop  offset="0.3344" style="stop-color:#C5D2C5"/>
			<stop  offset="0.5751" style="stop-color:#E2D9C2"/>
			<stop  offset="0.7845" style="stop-color:#F3DEC1"/>
			<stop  offset="0.9395" style="stop-color:#F9DFC0"/>
		</linearGradient>
		<path style="fill:url(#SVGID_00000018916944692270202640000014480979271522914202_);" d="M972.096,161.301
			c-30.239-14.661-22.072-46.705-79.863-46.705c-3.476,0-6.952,0.054-10.417,0.054c-67.231,0-66.61-57.607-111.423-84.043
			C730.962,7.345,681.875,13.049,638.319,0H401.618c213.668,123.6,643.37,279.818,877.495,304.834
			c-47.273-28.063-101.967-42.433-150.684-68.257c-32.041-16.984-58.09-44.797-91.908-58.438
			C1015.827,169.793,992.094,170.997,972.096,161.301z"/>
		
			<linearGradient id="SVGID_00000143587724499538002960000016949433007446562978_" gradientUnits="userSpaceOnUse" x1="430.4792" y1="266.6511" x2="665.1443" y2="31.986">
			<stop  offset="0" style="stop-color:#92C6CA"/>
			<stop  offset="0.0723" style="stop-color:#9EC9C9"/>
			<stop  offset="0.3344" style="stop-color:#C5D2C5"/>
			<stop  offset="0.5751" style="stop-color:#E2D9C2"/>
			<stop  offset="0.7845" style="stop-color:#F3DEC1"/>
			<stop  offset="0.9395" style="stop-color:#F9DFC0"/>
		</linearGradient>
		<path style="fill:url(#SVGID_00000143587724499538002960000016949433007446562978_);" d="M264.488,0h-96.813
			C319.33,128.961,513.043,201.001,706.243,257.946c108.977,32.12,219.969,42.416,223.628,38.769
			C569.125,102.27,410.034,107.346,282.075,13.749C276.412,9.607,270.548,4.962,264.488,0z"/>
		
			<linearGradient id="SVGID_00000098199901055056883870000012450295127927489935_" gradientUnits="userSpaceOnUse" x1="183.9667" y1="260.6025" x2="357.5717" y2="86.9976">
			<stop  offset="0" style="stop-color:#92C6CA"/>
			<stop  offset="0.0723" style="stop-color:#9EC9C9"/>
			<stop  offset="0.3344" style="stop-color:#C5D2C5"/>
			<stop  offset="0.5751" style="stop-color:#E2D9C2"/>
			<stop  offset="0.7845" style="stop-color:#F3DEC1"/>
			<stop  offset="0.9395" style="stop-color:#F9DFC0"/>
		</linearGradient>
		<path style="fill:url(#SVGID_00000098199901055056883870000012450295127927489935_);" d="M303.628,158.311
			c-40.807-25.475-66.38-63.058-113.426-80.367C136.623,58.232,63.726,51.375,3.958,27.429v51.278
			c167.396,143.457,491.541,217.794,535.614,217.794c9.074,0,17.373-0.891,24.59-2.912
			C563.972,293.498,411.654,225.75,303.628,158.311z"/>
		
			<linearGradient id="SVGID_00000117669294575578485170000001243518936167569813_" gradientUnits="userSpaceOnUse" x1="990.1853" y1="130.9036" x2="1101.4602" y2="19.6287">
			<stop  offset="0" style="stop-color:#92C6CA"/>
			<stop  offset="0.0723" style="stop-color:#9EC9C9"/>
			<stop  offset="0.3344" style="stop-color:#C5D2C5"/>
			<stop  offset="0.5751" style="stop-color:#E2D9C2"/>
			<stop  offset="0.7845" style="stop-color:#F3DEC1"/>
			<stop  offset="0.9395" style="stop-color:#F9DFC0"/>
		</linearGradient>
		<path style="fill:url(#SVGID_00000117669294575578485170000001243518936167569813_);" d="M944.205,0H870.57
			c127.608,86.453,328.367,145.819,354.612,146.425c-39.148-49.902-84.074-77.919-147.837-88.569
			C984.389,42.33,958.551,21.628,944.205,0z"/>
	</g>
	<g style="opacity:0.49;">
		
			<linearGradient id="SVGID_00000064317348101770429290000014108891400547882634_" gradientUnits="userSpaceOnUse" x1="1668.5531" y1="187.3129" x2="1903.2828" y2="-47.4169">
			<stop  offset="0" style="stop-color:#92C6CA"/>
			<stop  offset="0.0723" style="stop-color:#9EC9C9"/>
			<stop  offset="0.3344" style="stop-color:#C5D2C5"/>
			<stop  offset="0.5751" style="stop-color:#E2D9C2"/>
			<stop  offset="0.7845" style="stop-color:#F3DEC1"/>
			<stop  offset="0.9395" style="stop-color:#F9DFC0"/>
		</linearGradient>
		<path style="fill:url(#SVGID_00000064317348101770429290000014108891400547882634_);" d="M2000,129.278
			c-145.207-66.666-249.631-97.885-332.607-127.462h-144.386c126.45,75.854,269.959,126.377,413.192,168.594
			c21.469,6.328,43.012,11.805,63.802,16.499V129.278z"/>
		
			<linearGradient id="SVGID_00000025441405999072817450000012924915937444808383_" gradientUnits="userSpaceOnUse" x1="1373.5105" y1="212.0988" x2="1586.8374" y2="-1.2281">
			<stop  offset="0" style="stop-color:#92C6CA"/>
			<stop  offset="0.0723" style="stop-color:#9EC9C9"/>
			<stop  offset="0.3344" style="stop-color:#C5D2C5"/>
			<stop  offset="0.5751" style="stop-color:#E2D9C2"/>
			<stop  offset="0.7845" style="stop-color:#F3DEC1"/>
			<stop  offset="0.9395" style="stop-color:#F9DFC0"/>
		</linearGradient>
		<path style="fill:url(#SVGID_00000025441405999072817450000012924915937444808383_);" d="M1444.156,1.816h-274.924
			c-2.047,46.956,562.748,207.149,600.296,207.149c9.074,0,17.373-0.891,24.59-2.912c-0.19-0.091-152.508-67.839-260.534-135.278
			C1500.28,49.984,1477.119,21.134,1444.156,1.816z"/>
	</g>
	<g>
		<g style="opacity:0.31;">
			<polygon style="fill:#FFFFFF;" points="981.528,652.56 972.072,608.606 955.907,650.556 953.438,605.662 930.878,644.541 
				935.513,599.82 907.117,634.656 918.711,591.217 885.22,621.178 903.436,580.078 865.701,604.467 890.065,566.694 
				849.007,584.927 878.938,551.403 835.544,563.009 870.345,534.584 825.669,539.224 864.508,516.642 819.661,514.171 
				861.568,497.989 817.659,488.523 861.568,479.058 819.661,462.876 864.508,460.405 825.669,437.822 870.345,442.462 
				835.545,414.036 878.939,425.642 849.009,392.117 890.066,410.351 865.703,372.578 903.437,396.967 885.222,355.867 
				918.713,385.829 907.119,342.39 935.514,377.227 930.879,332.505 953.438,371.384 955.906,326.491 972.072,368.441 
				981.528,324.487 990.984,368.441 1007.149,326.491 1009.618,371.384 1032.177,332.505 1027.543,377.227 1055.939,342.391 
				1044.345,385.83 1077.835,355.869 1059.62,396.968 1097.355,372.58 1072.991,410.353 1114.048,392.119 1084.118,425.644 
				1127.512,414.038 1092.711,442.462 1137.387,437.823 1098.547,460.405 1143.395,462.876 1101.488,479.057 1145.397,488.523 
				1101.488,497.989 1143.395,514.171 1098.547,516.642 1137.386,539.225 1092.71,534.585 1127.511,563.01 1084.117,551.404 
				1114.047,584.929 1072.99,566.695 1097.353,604.469 1059.618,580.08 1077.833,621.179 1044.343,591.218 1055.937,634.657 
				1027.542,599.82 1032.177,644.542 1009.618,605.662 1007.149,650.556 990.984,608.606 			"/>
		</g>
		<ellipse style="fill:#FFFFFF;" cx="981.528" cy="488.523" rx="92.618" ry="92.713"/>
	</g>
	
		<linearGradient id="SVGID_00000011736423586928195260000003232500447040637829_" gradientUnits="userSpaceOnUse" x1="516.7833" y1="834.7522" x2="516.7833" y2="415.6154">
		<stop  offset="0" style="stop-color:#F6D27D"/>
		<stop  offset="1" style="stop-color:#F5B992"/>
	</linearGradient>
	<path style="fill:url(#SVGID_00000011736423586928195260000003232500447040637829_);" d="M978.575,541.324
		c-15.023,0-30.332,8.989-46.311,8.989c-24.202,0-31.363-25.181-53.388-25.181c-19.459,0-30.263,23.303-48.166,23.303
		c-21.665,0-31.329-25.919-52.765-26.085c-0.046,0-0.092,0-0.138,0c-14.507,0-22.25,17.763-36.863,17.763
		c-27.969,0-67.509-57.986-94.401-89.083c-16.455-19.028-55.897,136.601-111.839,136.601c-46.572,0-61.679-39.284-85.38-39.32
		c-30.184,0-24.577,43.883-69.147,46.366c-38.097,2.122-62.179-69.16-95.563-130.385c-27.524-50.478-50.127,112.627-89.822,112.627
		c-20.853,0-33.559-43.853-59.272-43.853c-18.328,0-35.336,19.941-52.577,19.941c-32.325,0-36.413-88.716-76.221-88.716
		c-0.951,0-1.87,0.046-2.763,0.128v351.757c85.237,15.869,166.622,18.575,192.058,18.575c123.092,0,336.651-25.565,361.791-139.383
		c54.834,25.347,106.615,55.989,162.034,63.058c17.341,2.212,38.066,3.583,60.458,3.583c112.005,0,249.309-34.549,249.309-147.082
		C1029.608,589.46,1007.674,541.324,978.575,541.324z"/>
	<g style="opacity:0.31;">
		<path style="fill:#FFFFFF;" d="M717.895,572.766"/>
	</g>
	<path style="fill:#EC9976;" d="M1996.042,548.046c-3.522-0.911-6.965-2.046-10.292-3.511
		c-34.873-15.374-47.134-75.058-81.74-75.058c-27.194,0-67.312,30.818-95.565,30.818c-36.724,0-35.081-50.739-60.286-68.817
		c-27.016-19.386-60.484-3.715-87.777-18.306c-11.301-6.053-6.927-26.271-16.754-35.771
		c-0.188-0.188-203.54-181.647-208.141-181.647c-1.049,0-2.078,0.079-3.097,0.228c-4.344,25.785-2.979,42.24-18.08,63.329
		c11.558,11.947,16.111,21.764,16.111,30.451c0,19.099-21.959,32.72-39.574,51.373c15.833-5.488,28.866-16.216,42.81-25.211
		c4.908,3.923,8.352,8.678,11.608,14.017c-17.07,26.707-52.409,47.876-77.277,67.758c30.895-9.52,55.991-28.084,83.284-44.567
		c8.53,6.736,10.5,15.701,13.686,25.587c8.669,3.784,16.051,5.538,25.67,6.28c0.99,5.151,1.465,10.144,1.465,14.978
		c0,48.292-46.659,81.051-83.532,104.628c56.793-8.915,72.963-45.37,97.099-45.37c19.574,0,34.834,12.987,51.677,12.987
		c6.61,0,13.468-2.001,20.93-7.598c2.632,3.398,3.958,14.473,6.224,16.404c27.758,23.656,30.183,50.868,30.183,52.165
		c0,9.817-49.984,59.823-56.822,68.788c18.05-0.248,37.248-9.866,53.676-16.989c0.356,2.427,0.515,4.824,0.515,7.212
		c0,4.527-0.574,9.014-1.455,13.561c11.855-0.733,23.285-9.985,32.241-9.985c60.919,0,129.162,94.078,142.126,125.213
		l208.013,106.886c1.031-0.164,2.049-0.337,3.078-0.503V548.046z"/>
	<path style="opacity:0.32;fill:#EC9976;" d="M1578.63,464.142c0.099,0.077,132.234,66.511,132.334,66.555
		c24.627,11.045,48.126,5.516,73.231,9.612c17.56,2.865,30.948,16.885,48.645,19.887c58.577,9.936,118.256,16.338,118.256,37.197
		c0,15.126-84.11,152.644-215.188,152.644c-124.482,0-226.092-134.701-226.092-149.18c0-14.558,10.478-29.512,16.898-41.543
		C1543.067,528.666,1552.869,488.884,1578.63,464.142z"/>
	
		<linearGradient id="SVGID_00000065763875278690218580000005477019392755876235_" gradientUnits="userSpaceOnUse" x1="761.7203" y1="533.302" x2="1996.9218" y2="533.302">
		<stop  offset="0" style="stop-color:#F6D27D"/>
		<stop  offset="1" style="stop-color:#F5B992"/>
	</linearGradient>
	<path style="fill:url(#SVGID_00000065763875278690218580000005477019392755876235_);" d="M1996.922,827.879
		c-67.569,10.857-140.107,19.109-210.309,25.33c-152.249,13.492-293.543,17.415-349.495,17.415
		c-116.594,0-269.565-21.09-353.552-21.09c-76.308,0-101.622,17.88-222.807,17.88c-6.68,0-13.359-0.02-20.039-0.02
		c-22.781,0-45.531,0.198-68.134,1.981c-3.226-34.335-10.866-70.373-10.866-105.43c0-127.689,102.947-126.629,169.765-173.198
		c165.965-115.683,120.592-61.953,166.529-94.494c29.787-21.09,47.976-56.752,77.307-79.179
		c18.535-14.186,46.778-13.631,63.275-30.105c22.167-22.12,24.334-52.205,61.919-53.136c0.594-0.01,1.197-0.02,1.801-0.02
		c1.761,0,3.533,0.01,5.304,0.01c65.67,0,86.411-131.652,128.726-137.843c-4.344,25.785-2.979,42.24-18.08,63.329
		c11.558,11.947,16.111,21.764,16.111,30.451c0,19.099-21.959,32.72-39.574,51.373c15.833-5.488,28.866-16.216,42.81-25.211
		c4.908,3.923,8.352,8.678,11.608,14.017c-17.07,26.707-52.409,47.876-77.277,67.758c30.895-9.52,55.991-28.084,83.284-44.567
		c8.53,6.736,10.5,15.701,13.686,25.587c8.669,3.784,16.051,5.538,25.67,6.28c0.99,5.151,1.465,10.144,1.465,14.978
		c0,48.292-46.659,81.051-83.532,104.628c56.793-8.915,72.963-45.37,97.099-45.37c19.574,0,34.834,12.987,51.677,12.987
		c6.61,0,13.468-2.001,20.93-7.598c2.632,3.398,3.958,14.473,6.224,16.404c27.758,23.656,30.183,50.868,30.183,52.165
		c0,9.817-49.984,59.823-56.823,68.788c18.05-0.248,37.248-9.866,53.676-16.989c0.356,2.427,0.515,4.824,0.515,7.212
		c0,4.527-0.574,9.014-1.455,13.561c11.855-0.733,23.285-9.985,32.241-9.985c60.919,0,129.162,94.078,142.126,125.213
		L1996.922,827.879z"/>
	<path style="opacity:0.27;fill:#EC9976;" d="M1318.92,752.936c37.841-32.681,84.101-53.69,129.66-74.257
		c-62.292,14.516-123.055,35.594-180.964,62.772c42.741-41.937,92.22-76.253,141.431-110.35
		c-39.606,20.352-141.601,77.915-153.401,78.844c12.252-11.456,29.011-27.142,40.956-37.012
		c-31.9,14.023-60.917,32.768-92.817,46.791c43.269-36.663,90.806-67.888,138.207-99.013
		c-75.374,39.869-150.748,79.739-226.122,119.608c57.958-52.204,117.119-103.072,177.418-152.548
		c-82.702,31.859-150.259,94.177-230.664,131.465c48.795-45.585,99.853-88.742,152.922-129.258
		c-28.415,4.193-175.699,65.163-222.593,84.712c78.57-49.343,149.033-111.157,229.679-157.022
		c-104.601,23.421-197.781,83.098-300.978,112.093c39.622-39.786,81.853-76.97,126.329-111.231c-2.415,1.86-6.408,3.1-10.882,4.031
		c-19.55,10.414-51.243,30.089-106.035,68.281c-55.621,38.765-136.33,44.458-161.511,119.314
		c8.274,17.792,16.699,35.746,21.604,44.909c33.234,62.086,196.418,38.763,261.035,66.648
		c34.677,14.964,73.672,17.96,111.168,13.476c37.496-4.483,73.769-16.147,109.065-29.584
		c66.854-25.451,131.198-57.504,191.794-95.543C1429.617,721.709,1333.056,754.115,1318.92,752.936z"/>
	
		<linearGradient id="SVGID_00000151504191615636207640000017162245616140257692_" gradientUnits="userSpaceOnUse" x1="998.0208" y1="884.426" x2="998.0208" y2="585.2292">
		<stop  offset="0" style="stop-color:#182947"/>
		<stop  offset="0.0084" style="stop-color:#E77D78"/>
		<stop  offset="0.4474" style="stop-color:#ED9683"/>
		<stop  offset="0.9637" style="stop-color:#F5B992"/>
	</linearGradient>
	<path style="fill:url(#SVGID_00000151504191615636207640000017162245616140257692_);" d="M1971.438,598.46
		c-96.146-65.269-231.464,132.17-347.385,132.17c-68.896,0-118.135-84.65-174.209-57.485
		c-86.196,41.758-129.358,112.368-191.451,112.368c-43.71,0-86.216-19.749-119.968-45.55
		c-29.463-22.523-74.725,24.864-111.711,24.864c-45.999,0-212.202-115.917-385.022-164.196
		c-139.233-38.896-187.855,120.176-308.782,120.176C207.266,720.806,126.932,608.25,0,604.261v280.165h1996.042v-274.89
		C1987.304,607.142,1979.027,603.611,1971.438,598.46z"/>
	<polygon style="fill:#E3C997;" points="1995.794,867.334 1995.794,1280.675 65.964,1287.948 123.106,867.334 	"/>
	<polygon style="fill:#BDCCA9;" points="1995.794,2000 1995.794,1284.637 123.106,1275.017 123.106,871.297 3.958,871.297 
		3.958,2000 	"/>
	<path style="fill:#CD656B;" d="M1979.89,757.723c0,0-6.807-98.869-6.169-110.585c-1.603,12.022-17.815,122.992-17.815,122.992
		s-13.066-104.213-13.066-109.924c0-5.711-18.408,109.924-18.408,109.924s-11.984-75.354-11.984-78.126
		c0-2.772-17.659,74.245-17.659,74.245l-16.226-85.214l-14.047,81.164l-17.515-78.974l-25.338,92.226l-21.977-97.154
		l-21.002,117.853l-17.013-116.785l-23.206,120.066l-18.796-136.4l-13.292,86.575l-6.738-39.596l-8.345,32.637l-9.201-54.071
		l-24.739,96.756c0,0-19.925-78.125-20.986-85.364c-0.351,2.716-3.721,15.268-7.895,30.24l-13.089-67.14l-13.978,87.666
		c0,0-11.981-46.26-13.122-49.687c-1.141-3.427-18.542,66.276-18.542,66.276s-11.34-52.748-11.755-61.929
		c-1.322,10.259-12.711,77.496-12.711,77.496l-11.289-88.973l-16.323,101.69c0,0-6.836-98.869-6.196-110.585
		c-1.61,12.022-17.893,122.992-17.893,122.992s-13.122-104.213-13.122-109.924c0-5.711-18.487,109.924-18.487,109.924
		s-12.036-75.355-12.036-78.126s-17.735,74.245-17.735,74.245l-16.297-85.214l-14.107,81.164l-17.591-78.974l-25.448,92.226
		l-22.073-97.154l-21.093,117.854l-17.086-116.785l-23.306,120.066l-18.877-136.4l-13.35,86.575l-6.767-39.596l-8.381,32.636
		l-9.24-54.071l-24.846,96.756c0,0-20.012-78.125-21.077-85.364c-0.302,2.324-2.823,11.849-6.17,23.924l-13.76-70.582
		l-13.978,87.666c0,0-11.981-46.26-13.122-49.687c-1.141-3.427-18.542,66.276-18.542,66.276s-11.34-52.748-11.755-61.929
		c-1.322,10.259-12.711,77.495-12.711,77.495l-11.289-88.973l-16.323,101.69c0,0-6.836-98.869-6.196-110.585
		c-1.61,12.022-17.893,122.992-17.893,122.992s-13.122-104.213-13.122-109.924c0-5.711-18.488,109.924-18.488,109.924
		s-12.036-75.354-12.036-78.126c0-2.772-17.735,74.245-17.735,74.245l-16.297-85.214l-14.107,81.164l-17.591-78.974l-25.448,92.226
		l-22.073-97.154l-21.093,117.854l-17.086-116.785l-23.306,120.066l-18.877-136.4l-13.35,86.575l-6.767-39.596l-8.381,32.637
		l-9.24-54.071l-24.846,96.756c0,0-20.012-78.125-21.077-85.364c-0.408,3.141-4.869,19.431-9.945,37.407l-21.873-112.193
		l-13.978,87.666c0,0-11.981-46.26-13.122-49.687c-1.141-3.427-18.542,66.276-18.542,66.276s-11.341-52.748-11.755-61.929
		c-1.322,10.259-12.711,77.495-12.711,77.495l-11.289-88.973l-16.323,101.69c0,0-6.836-98.869-6.196-110.585
		c-1.61,12.022-17.893,122.992-17.893,122.992S543.25,731.93,543.25,726.219c0-5.711-18.487,109.924-18.487,109.924
		s-12.036-75.354-12.036-78.126c0-2.772-17.735,74.245-17.735,74.245l-16.297-85.214l-14.107,81.164l-17.591-78.974l-25.448,92.226
		l-22.072-97.154l-21.093,117.854l-17.086-116.785L337.99,865.446l-18.877-136.4l-13.349,86.575l-6.767-39.596l-8.381,32.637
		l-9.241-54.071l-24.846,96.756c0,0-20.012-78.125-21.077-85.364c-0.982,7.563-25.465,91.376-25.465,91.376l-20.725-51.906
		c0,0-10.643,39.136-17.492,65.491h102.852h40.595h331.099h66.907h35.945h40.595h398.006l-5.484-28.128h29.541h40.595h398.006
		l-7.386-37.885h32.329h40.42h280.25V656.667L1979.89,757.723z"/>
	<rect x="3.958" y="867.332" style="fill:#F9DFC0;" width="1991.84" height="72.354"/>
	<g style="opacity:0.49;">
		<rect x="3.958" y="1564.027" style="fill:#E3C997;" width="1567.823" height="27.909"/>
		<polygon style="fill:#E3C997;" points="3.958,1333.624 3.958,1360.474 1995.798,1362.463 1995.798,1315.734 		"/>
		<rect x="520.003" y="1709.244" style="fill:#E3C997;" width="1475.795" height="27.909"/>
		<polygon style="fill:#E3C997;" points="3.958,1535.089 1295.238,1502.395 1290.874,1488.495 3.958,1521.079 		"/>
		<polygon style="fill:#E3C997;" points="3.958,1496.896 1295.238,1464.201 1290.874,1450.302 3.958,1482.886 		"/>
		<polygon style="fill:#E3C997;" points="3.958,1382.27 3.958,1450.744 1944.275,1410.179 1944.275,1382.27 		"/>
		<polygon style="fill:#E3C997;" points="3.958,1628.16 3.958,1702.886 1995.798,1675.327 1995.798,1628.16 		"/>
	</g>
	<rect x="3.958" y="1790.219" style="fill:#93CBB8;" width="1991.835" height="209.781"/>
	<g style="opacity:0.49;">
		<polygon style="fill:#BDCCA9;" points="1995.798,1821.589 640.657,1833.761 328.274,1858.663 1995.798,1860.328 		"/>
		<polygon style="fill:#BDCCA9;" points="1995.798,2000 1995.798,1989.583 1584.374,2000 		"/>
		<polygon style="fill:#BDCCA9;" points="629.237,2000 1995.798,1965.399 1995.798,1951.389 320.215,1993.814 322.157,2000 		"/>
		<polygon style="fill:#BDCCA9;" points="3.958,1880.934 3.958,1966.146 1995.798,1924.504 1995.798,1880.934 		"/>
	</g>
	<g style="opacity:0.49;">
		<rect x="8.275" y="1203.174" style="fill:#F9DFC0;" width="1861.987" height="27.909"/>
		<polygon style="fill:#F9DFC0;" points="134.853,974.243 3.958,984.656 3.958,999.327 2000,1001.315 2000,957.526 		"/>
		<polygon style="fill:#F9DFC0;" points="3.958,1183.501 1848.002,1154.844 1843.629,1140.945 3.958,1169.534 		"/>
		<polygon style="fill:#F9DFC0;" points="3.958,1145.308 1933.343,1115.327 1928.97,1101.428 3.958,1131.341 		"/>
		<polygon style="fill:#F9DFC0;" points="3.958,1021.416 3.958,1096.048 2000,1054.406 2000,1021.416 		"/>
	</g>
	<g style="opacity:0.32;">
		<path style="fill:#F9DFC0;" d="M864.208,946.276c1.503,0.143,4.264-2.012,7.792-5.657c-5.216-10.812-13.358-21.035-19.062-28.367
			C857.147,925.541,861.934,946.059,864.208,946.276z"/>
		<path style="fill:#F9DFC0;" d="M847.608,901.154c-3.115,0.031,0.069,4.336,5.329,11.097
			C850.913,905.861,849.022,901.14,847.608,901.154z"/>
		<path style="fill:#F9DFC0;" d="M821.141,1207.123c1.666,33.117-73.302,19.754-68.915,52.699
			c4.907,36.846,76.2,29.104,84.76,65.061c7.52,31.584-69.802,20.893-60.852,52.697c10.657,37.873,80.221,27.222,92.058,65.061
			c9.914,31.694-67.749,21.66-57.094,52.698c12.853,37.441,81.818,26.812,94.039,65.057c10.144,31.745-67.236,21.246-57.641,52.694
			c11.325,37.116,81.486,27.044,90.708,65.054c7.859,32.394-68.549,20.447-62.49,52.695c6.819,36.297,78.423,28.592,82.064,65.053
			c3.285,32.891-71.502,19.989-71.643,52.697c-0.143,33.045,73.547,31.359,68.107,65.057c-5.643,34.954-74.012,18.665-85.101,52.696
			c-6.299,19.329,18.591,25.372,36.271,33.658h405.333c0.544-1.431,0.976-2.899,1.263-4.411
			c6.529-34.371-69.357-22.513-68.008-56.31c1.409-35.307,74.551-35.721,69.414-71.917c-5.23-36.855-74.842-20.377-84.611-56.305
			c-9.264-34.068,64.316-37.698,51.691-71.916c-13.899-37.673-79.368-19.538-95.762-56.308
			c-14.681-32.928,57.147-39.36,40.934-71.914c-18.484-37.114-81.892-19.527-101.458-56.308
			c-17.102-32.15,53.976-39.885,37.14-71.915c-19.295-36.709-82.571-19.059-101.699-56.304
			c-16.733-32.581,54.979-39.227,40.313-71.911c-16.495-36.76-81.536-18.33-96.49-56.301
			c-13.462-34.182,60.136-37.561,50.447-71.912c-10.393-36.843-79.736-19.772-85.831-56.305
			c-5.954-35.691,67.375-35.602,67.544-71.915c0.163-34.949-75.168-21.844-69.717-56.304c6.248-39.501,77.174-35.153,91.607-71.913
			c8.076-20.57-21.881-26.075-39.868-33.83c-5.26,6.417-8.946,10.549-9.513,10.276c0,0,2.649-4.656,6.585-11.617
			c-3.977-1.948-7.087-4.085-8.633-6.653c-8.534,10.741-15.173,18.645-15.95,18.27c0,0,41.272-72.543,40.208-73.305
			c0,0-55.855,74.437-58.2,73.305c0,0,41.274-72.543,40.21-73.305c0,0-55.854,74.437-58.2,73.305c0,0,41.273-72.542,40.209-73.305
			c0,0-55.856,74.437-58.203,73.305c0,0,41.273-72.543,40.209-73.305c0,0-55.855,74.437-58.201,73.305
			c0,0,41.274-72.543,40.21-73.305c0,0-55.856,74.437-58.202,73.305c0,0,41.274-72.543,40.21-73.305
			c0,0-55.853,74.437-58.198,73.305c0,0,41.274-72.543,40.211-73.305c0,0-33.766,50.454-50.406,67.648
			c5.055,10.477,7.359,21.503,2.011,30.98c-19.162,33.955-83.456,16.51-97.958,52.704c-12.622,31.501,60.988,33.325,54.222,65.063
			c-7.324,34.358-78.286,18.624-81.283,52.7C745.987,1176.233,819.39,1172.305,821.141,1207.123z"/>
		<path style="fill:#F9DFC0;" d="M1007.057,918.435c-2.499,3.827-2.558,6.927-0.965,9.571c7.503-9.443,16.468-21.077,24.209-31.215
			C1020.421,904.136,1011.271,911.981,1007.057,918.435z"/>
		<path style="fill:#F9DFC0;" d="M1048.348,872.971c0,0-7.988,10.644-18.047,23.82c3.065-2.279,6.198-4.509,9.278-6.635
			C1044.918,880.382,1048.678,873.208,1048.348,872.971z"/>
		<path style="fill:#F9DFC0;" d="M1017.653,936c16.543-20.182,48.697-63.029,48.697-63.029c0.042,0.047-12.795,7.537-26.771,17.185
			c-7.488,13.706-18.078,32.522-24.853,44.503C1015.657,935.115,1016.635,935.561,1017.653,936z"/>
	</g>
</g>
<g id="OBJECTS_1_">
	<g>
		<path style="fill:#79536B;" d="M1574.46,1175.59c-12.627,0-24.707,2.176-35.839,6.138c-16.066-10.161-35.461-16.1-56.348-16.1
			c-45.541,0-83.994,28.231-96.285,66.917c-37.975,13.329-64.99,47.467-64.99,87.483c0,51.622,44.952,93.47,100.402,93.47
			c45.541,0,83.994-28.23,96.285-66.917c0.142-0.05,0.284-0.1,0.426-0.151c16.066,10.161,35.461,16.1,56.348,16.1
			c55.451,0,100.402-41.848,100.402-93.47C1674.862,1217.438,1629.911,1175.59,1574.46,1175.59z"/>
		<path style="fill:#473D63;" d="M1629.396,1172.313c-3.701,7.36-10.587,22.493-16.426,27.545
			c-12.12-16.271,4.788-28.034,6.492-31.805c-4.067-1.07-16.937-5.324-21.262-5.631c3.724,26.231-2.341,47.284-10.04,45.286
			c-11.087-2.877-2.152-29.996,3.705-45.188c-5.621,0.773-16.976,3.928-22.082,5.959c-2.385,0.951-4.819,1.694-7.283,2.239
			c3.236,5.27,4.988,11.6,4.988,18.594c0,12.452-20.024,5.408-16.301-19.222c-5.829-1.02-18.305-2.165-23.451-5.385
			c0.624,3.705,0.94,7.271,0.94,10.708c0,15.642-14.616,31.465-29.767,40.43c3.365-17.999,16.011-38.142,23.898-54.457
			c-7.244-4.765-26.619-11.501-35.149-13.948c1.357,20.84,0.111,60.842-14.992,56.13c-10.979-3.426-3.89-42.125,9.608-56.13
			c-7.095,0.664-29.648,2.169-36.14,4.428c5.344,8.836,9.272,18.128,9.272,27.777c0,4.636-0.91,9.361-3.008,14.146
			c-10.826-10.114-14.161-25.362-17.308-38.636c-8.936,5.032-20.148,14.752-26.788,22.479c7.838,17.118,19.168,30.124,33.834,45.251
			c0.049,0.02,0.099,0.049,0.148,0.079v0.069l-0.148-0.149c-17.882-9.817-31.014-21.308-40.306-36.702
			c-2.316,3.457-4.384,7.103-6.185,10.887c-3.394,7.142-7.914,15.342-22.157,18.737c18.086,11.089,22.13,34.999,30.71,53.256
			c-7.254-3.715-28.549-33.197-38.623-51.672c-7.026,2.556-22.22,9.12-28.267,13.3c6.195,20.525,35.31,18.83,49.995,43.173
			c-4.602-1.298-43.8-22.648-60.158-35c-6.798,6.37-18.09,19.263-21.482,30.199c7.414,14.136,57.778,7.476,57.877,7.454
			c-14.216,11.195-53.763,14.563-61.383,4.32c-1.841,7.073-2.82,14.483-2.82,22.13c0,0.545,0.01,1.1,0.02,1.644
			c32.483,11.284,57.937-10.065,60.979-7.781c-3.342,12.049-44.952,28.06-60.999,14.255c4.291,48.204,47.332,79.6,87.639,79.6
			c41.701,0,76.594-29.154,85.451-68.213c0.782,0.02,1.573,0.03,2.355,0.03c30.311,0,57.01-15.394,72.755-38.802
			c12.489,11.927,29.401,19.267,48.035,19.267c38.456,0,69.638-31.214,69.638-69.709
			C1665.21,1207.053,1650.762,1184.22,1629.396,1172.313z M1323.49,1330.251c9.91-1.872,38.918-13.734,42.845-23.308
			c0.261-0.03,0.522-0.059,0.783-0.089c1.571,2.55,2.87,4.898,2.87,8.141C1369.987,1336.391,1323.589,1330.294,1323.49,1330.251z
			 M1427.522,1241.409c-11.465,0-22.445-9.069-25.143-22.311c8.217,2.328,11.836,14.098,39.605,14.098
			c1.303,0,2.52-0.149,3.411-0.61C1440.129,1238.73,1433.754,1241.409,1427.522,1241.409z M1516.127,1224.817
			c0.099-0.099,14.903-10.574,15.617-28.356c2.998,4.32,4.34,8.46,4.34,12.179
			C1536.084,1217.855,1527.843,1224.481,1516.127,1224.817z"/>
		<path style="fill:#79536B;" d="M1395.476,1213.9c-11.639-4.573-11.634-16.081-16.914-25.055
			c9.883,0.196,20.442,7.115,20.442,16.079C1399.004,1207.76,1397.947,1210.802,1395.476,1213.9z"/>
		<path style="fill:#79536B;" d="M1300.397,1271.895c-5.401-3.597-12.201-5.158-18.941-5.158c-4.902,0-9.773,0.826-14.049,2.296
			c6.705,2.5,14.636,5.366,22.204,5.366C1293.359,1274.399,1297.019,1273.695,1300.397,1271.895z"/>
		<path style="fill:#79536B;" d="M1316.135,1321.355c-0.621-0.025-1.226-0.037-1.815-0.037c-12.244,0-17.857,5.248-27.398,12.224
			c1.667,0.153,3.366,0.239,5.067,0.239C1301.813,1333.781,1311.715,1330.906,1316.135,1321.355z"/>
		<path style="fill:#79536B;" d="M1398.119,1294.243c1.267-2.528,2.35-6.959,2.35-11.238c0-5.74-1.95-11.204-8.022-11.429
			c-0.767,2.751-1.162,5.262-1.162,7.615C1391.285,1284.723,1393.466,1289.384,1398.119,1294.243z"/>
		<path style="fill:#79536B;" d="M1461.047,1226.617c-2.114-15.928-11.274-19.734-24.407-24.822
			C1441.411,1213.889,1447.325,1224.281,1461.047,1226.617z"/>
		<path style="fill:#79536B;" d="M1539.225,1186.498c3.624-5.972,8.783-14.531,8.783-22.323c0-3.446-1.009-6.741-3.607-9.596
			c-4.216,6.604-6.414,14.222-6.414,21.948C1537.987,1179.855,1538.395,1183.203,1539.225,1186.498z"/>
		<path style="fill:#79536B;" d="M1549.12,1219.683c10.774-1.975,20.856-7.127,27.293-16.205c-0.909,0.913-8.423,0.657-10.346,1.441
			C1558.778,1207.891,1554.269,1214.087,1549.12,1219.683z"/>
		<path style="fill:#79536B;" d="M1414.041,1278.624c3.19-4.038,11.298-13.13,11.298-19.884c0-1.217-0.263-2.358-0.866-3.379
			C1417.127,1260.415,1415.917,1270.475,1414.041,1278.624z"/>
		<path style="fill:#79536B;" d="M1362.087,1236.028c-4.562-16.953-15.198-22.625-30.775-28.031
			C1338.426,1221.58,1346.239,1232.896,1362.087,1236.028z"/>
		<path style="fill:#79536B;" d="M1332.894,1261.289c-13.492-6.824-23.229-9.93-37.681-9.93c-0.7,0-1.41,0.007-2.133,0.022
			c5.41,7.948,18.192,10.976,29.175,10.976C1326.168,1262.356,1329.853,1261.972,1332.894,1261.289z"/>
	</g>
	<path style="fill:#588684;" d="M1986.942,660.021l-10.445,65.789l-19.988-102.968l-16.364,103.075
		c-0.002-0.006-0.005-0.015-0.007-0.021c-0.755-2.277-5.633,14.072-11.363,35.101c-6.017-23.245-17.618-67.902-19.069-72.279
		c-1.086-3.276-10.701,31.972-19.114,64.279c-1.561-8.972-2.621-16.076-2.778-19.561c-1.063,8.281-5.891,37.965-10.749,67.339
		c-3.328-15.675-19.044-90.283-19.684-104.517c-0.809,6.301-3.798,24.999-7.321,46.519l-3.695-29.248l-14.373,89.933
		l-16.059-127.111l-7.801,48.811c-0.593-13.227-0.875-23.065-0.657-27.06c-1.651,12.38-12.234,85.258-20.561,142.433
		c-2.667-39.537-10.798-162.592-9.871-179.611c-1.413,10.599-9.374,65.538-16.86,117.005c-3.553-29.808-6.271-53.73-6.271-57.161
		c0-4.893-7.789,41.56-15.672,89.831c-6.539-53.1-14.76-121.043-14.76-127.009c0-5.675-10.478,57.72-19.429,112.914
		c-1.727-11.521-2.854-19.463-2.854-20.582c0-2.403-7.651,29.766-15.306,62.548c-6.155-39.074-15.127-96.568-15.127-99.727
		c0-2.668-9.432,37.28-17.828,73.37l-10.514-55.217l-11.119,64.247l-19.314-101.426l-14.639,84.588l-9.672-43.611l-12.277,44.685
		l-18.156-81.863l-31.872,116.006l-19.765-87.376l-9.704,54.454l-20.728-91.633l-22.664,127.178l-12.841-88.146l-14.265,73.806
		l-16.168-110.984l-25.476,131.811l-16.944-122.963l-13.338,86.874l-17.094-124.053l-23.055,150.165l-11.686-68.679l-14.474,56.608
		l-15.958-93.787l-32.312,126.375c-8.073-32.374-15.727-63.707-16.566-69.437c-0.535,4.14-5.113,21.454-11.129,43.212
		c-8.999-35.94-18.369-74.015-19.304-80.391c-1.696,13.118-43.979,158.493-43.979,158.493l-35.793-90.032
		c0,0-18.381,67.882-30.208,113.595h100.38h75.623h1.626h70.109h5.08h60.872h9.151h61.219h7.109h522.949V826.493V706.898
		L1986.942,660.021z"/>
	<path style="fill:#818E82;" d="M1996.922,694.292c-140.135,37.029-210.946,113.681-280.557,113.681
		c-38.982,0-76.893-16.741-116.78-16.741c-85.594,0-124.629,66.328-205.21,66.328c-63.33,0-121.762-26.604-186.512-26.604
		c-101.267,0-173.263,98.68-278.967,108.729h1068.026V694.292z"/>
	<g>
		<path style="fill:none;" d="M1335.516,853.278c18.265,3.307,36.668,5.669,55.504,5.669c25.39,0,46.654-6.588,66.551-15.608
			c-19.596-3.774-38.967-6.649-57.7-6.649C1368.408,836.69,1351.478,843.909,1335.516,853.278z"/>
		<path style="opacity:0.14;fill:#818E82;" d="M1994.948,695.314c-141.054,36.888-212.099,114.046-281.939,114.046
			c-5.412,0-10.802-0.331-16.181-0.887c-39.152,27.277-78.366,52.556-127.415,52.556c-36.186,0-74.425-10.484-111.843-17.69
			c-19.897,9.02-41.161,15.608-66.551,15.608c-18.837,0-37.239-2.362-55.504-5.669c-29.508,17.321-55.705,41.99-164.278,41.99
			c-48.071,0-66.206-4.653-98.798-4.653c-6.836,0-13.622,0.263-20.294,0.912c-39.227,23.061-79.58,45.074-126.604,49.544h1069.407
			V695.314z"/>
		<path style="fill:#818E82;" d="M1457.571,843.339c37.418,7.207,75.657,17.69,111.843,17.69c49.049,0,88.263-25.279,127.415-52.556
			c-33.365-3.447-66.249-15.854-100.599-15.854C1537.605,792.619,1500.82,823.731,1457.571,843.339z"/>
		<path style="fill:#818E82;" d="M1171.238,895.268c108.573,0,134.77-24.67,164.278-41.99
			c-43.143-7.812-85.517-20.935-131.008-20.935c-56.216,0-103.413,30.409-152.362,59.185c6.672-0.649,13.458-0.912,20.294-0.912
			C1105.032,890.615,1123.166,895.268,1171.238,895.268z"/>
	</g>
	<polygon style="fill:#588684;" points="780.138,901.926 771.943,929.721 756.284,859.182 725.637,963.133 703.624,862.318 
		694.651,887.721 679.77,819.573 638.841,935.439 626.901,882.482 617.813,905.226 603.047,839.737 576.56,906.023 568.628,863.038 
		557.009,886.601 544.774,820.293 516.734,877.159 505.319,804.758 493.495,838.31 481.465,762.013 447.01,859.784 431.218,804.758 
		425.097,823.801 407.364,762.013 376.182,859.02 370.068,831.814 361.237,855.919 346.214,789.069 327.049,841.38 320.864,804.758 
		308.258,828.609 297.01,762.013 269.031,814.953 265.751,767.735 248.184,815.484 241.897,724.99 222.567,777.531 220.428,719.727 
		200.308,777.912 196.574,676.982 170.181,753.31 162.874,670.756 148.904,739.679 139.02,628.011 116.241,740.395 98.126,652.752 
		89.705,684.675 74.272,610.007 51.429,696.599 39.134,638.396 31.138,670.721 15.28,595.652 3.958,641.421 3.958,777.046 
		4.605,777.989 3.958,780.603 3.958,784.982 105.32,932.893 380.347,1003.485 533.393,1003.485 734.448,1003.485 750.197,1003.485 
		788.318,1003.485 802.683,1003.485 	"/>
	<g>
		<path style="fill:#818E82;" d="M3.958,1035.483h876.571c-35.999-23.492,32.898,22.417-138.748-65.907
			c-36.73-18.901-76.366-4.449-113.322-20.33c-25.934-11.145-27.528-42.812-61.8-42.812c-5.625,0-11.309,0.598-16.896,0.598
			c-44.461,0-40.529-55.031-109.144-55.031c-25.512,0-48.942,10.138-73.677,10.138c-21.391,0-20.557-25.81-51.278-25.81
			c-8.895,0-17.926,1.86-26.585,1.86c-28.539,0-30.164-24.135-50.248-32.476c-19.382-8.049-44.794,1.431-61.811-12.5
			c-18.768-15.366-50.905-104.35-168.428-104.35c-1.545,0-3.09,0.033-4.635,0.079V1035.483z"/>
		<path style="opacity:0.14;fill:#818E82;" d="M741.782,969.576c-36.73-18.901-76.366-4.449-113.322-20.33
			c-25.934-11.145-27.528-42.812-61.8-42.812c-5.625,0-11.309,0.598-16.896,0.598c-16.4,0-26.215-7.49-35.516-16.941
			c90.264,125.759-148.965,105.594-288.241,3.042c-72.818-53.617-147.629,19.742-222.048-48.261v148.921
			c17.452,14.036,35.488,28.164,53.652,41.69h822.919C844.531,1011.991,913.427,1057.899,741.782,969.576z"/>
	</g>
	<g>
		<path style="fill:#1B6C77;" d="M542.383,1236.472c1.096-14.369-2.644-28.687-10.466-40.628c-4.344,0.636-15.447,4.19-22.897,2.216
			c5.089-2.645,14.027-8.479,16.777-10.131c-2.615-2.906-10.136-9.121-13.314-11.546c-7.496,19.322-28.456,36.479-33.932,42.047
			c2.72-4.784,23.159-41.494,27.032-45.53c-3.725-1.78-11.212-3.777-15.063-4.778c-6.615,2.799-6.121,19.823-11.668,21.616
			c-0.445-3.275,1.155-16.379,3.354-22.991c-3.995-0.275-7.979-0.178-11.915,0.287c-1.335,11.297-1.78,49.554-1.807,49.607
			c-0.565-0.374-6.533-36.643-9.756-48.111c-4.228,1.66-13.03,6.359-16.84,8.884c2.327,5.346,6.813,9.863,11.892,12.959
			c0.009,0.115,0.03,0.226,0.039,0.341c-4.216,2.232-11.4-0.251-14.315-1.723c-2.704-1.365-4.836-2.896-6.477-4.501
			c-5.244,4.997-9.729,10.954-13.173,17.791c-4.322,8.58-6.548,17.663-6.888,26.677l14.883,7.512H542.383z"/>
		<path style="fill:#1B6C77;" d="M1829.464,967.943c-2.82-14.132-10.282-26.907-21.035-36.29
			c-4.011,1.787-13.743,8.209-21.449,8.322c4.187-3.922,11.22-11.955,13.421-14.289c-3.301-2.092-12.22-6.043-15.934-7.519
			c-2.006,20.63-17.561,42.815-21.332,49.656c1.329-5.342,11.109-46.212,13.749-51.144c-4.067-0.708-11.814-0.607-15.793-0.53
			c-5.615,4.483-0.548,20.741-5.405,23.966c-1.312-3.034-3.306-16.083-2.971-23.044c-3.921,0.815-7.73,1.985-11.395,3.497
			c1.761,11.238,11.651,48.195,11.639,48.254c-0.645-0.207-16.173-33.517-22.369-43.688c-3.623,2.741-10.831,9.644-13.819,13.106
			c11.683,18.678,15.39,18.678,27.721,25.963c-3.227-1.514-22.048,2.244-34.346-16.755c-3.701,6.229-6.414,13.176-7.886,20.691
			c-1.847,9.429-1.541,18.777,0.563,27.548l16.357,3.211L1829.464,967.943z"/>
		<path style="fill:#259198;" d="M1597.339,1018.832c-2.614-14.171-0.413-28.806,6.099-41.51c4.387,0.171,15.804,2.525,23.003-0.23
			c-5.341-2.089-14.847-6.94-17.756-8.291c2.292-3.168,9.111-10.147,12.015-12.896c9.502,18.416,32.164,33.248,38.199,38.203
			c-3.212-4.468-27.429-38.797-31.708-42.399c3.515-2.166,10.748-4.947,14.472-6.352c6.875,2.08,8.189,19.06,13.895,20.253
			c0.095-3.304-2.885-16.164-5.774-22.504c3.944-0.698,7.915-1.025,11.878-0.98c2.525,11.091,7.025,49.085,7.058,49.134
			c0.522-0.432,2.61-37.13,4.599-48.875c4.38,1.202,13.631,4.938,17.687,7.044c-1.747,5.563-5.729,10.531-10.451,14.149
			c0.004,0.115-0.006,0.228-0.002,0.343c4.429,1.771,11.309-1.461,14.052-3.235c2.544-1.644,4.502-3.393,5.963-5.164
			c5.744,4.412,10.836,9.858,14.986,16.291c5.207,8.072,8.384,16.867,9.678,25.794l-14.003,9.052L1597.339,1018.832z"/>
		<path style="fill:#1B6C77;" d="M144.935,956.32c3.484-13.982,2.192-28.725-3.523-41.808c-4.389-0.101-15.93,1.542-22.945-1.653
			c5.46-1.755,15.248-6.008,18.235-7.176c-2.092-3.303-8.467-10.691-11.195-13.615c-10.622,17.793-34.156,31.194-40.486,35.766
			c3.482-4.261,29.773-37.026,34.266-40.356c-3.374-2.379-10.422-5.603-14.052-7.235c-6.99,1.65-9.351,18.517-15.119,19.355
			c0.109-3.304,3.878-15.955,7.153-22.104c-3.893-0.941-7.836-1.513-11.795-1.714c-3.206,10.913-10.044,48.556-10.079,48.604
			c-0.495-0.464-0.312-37.221-1.571-49.067c-4.446,0.928-13.91,4.085-18.088,5.936c1.4,5.661,5.067,10.865,9.557,14.769
			c-0.011,0.115-0.008,0.228-0.019,0.343c-4.53,1.494-11.197-2.159-13.825-4.098c-2.437-1.799-4.284-3.666-5.633-5.523
			c-6.005,4.048-11.424,9.168-15.963,15.332c-5.696,7.734-9.41,16.316-11.253,25.146l13.417,9.901L144.935,956.32z"/>
	</g>
	<g>
		<path style="fill:#1B6C77;" d="M442.224,1053.352l-18.784,7.167l0.854,35.916c4.443-1.589,15.292-10.274,23.443-13.159
			L442.224,1053.352z M424.78,1071.03l19.402-7.048C444.182,1063.982,438.494,1078.628,424.78,1071.03z"/>
		<path style="fill:#1B6C77;" d="M397.331,1079.639l-2.03,11.029l24.738,5.767c0,0-15.629,6.624-24.738-5.767l-3.821,20.762
			c5.406,2.715,21.469,10.245,27.954,13.272l1.12-47.029C417.295,1079.308,409.291,1082.244,397.331,1079.639z"/>
		<path style="fill:#1B6C77;" d="M450.826,1100.057l-26.046,16.784l0.627,26.311l30.271-16.736c0,0-11.609,21.41-30.271,16.736
			l0.369,15.463c23.153-2.136,31.304-24.587,31.304-24.587L450.826,1100.057z"/>
		<path style="fill:#1B6C77;" d="M422.48,1117.673v-20.586c0,0,0.666-0.239,1.813-0.652l-0.854-35.916l-1.239,0.473v-12.941
			l0.932-0.4l16.724-7.162l-3.717-20.191H422.48v-0.05l-1.466-82.086l-10.516,69.98l7.343,6.257l-8.242-1.374l-4.019,21.827
			l15.828,7.009v9.648l-17.365-8.31l-3.82,20.747c5.507,3.726,16.306,9.693,20.377,11.917c1.005,0.547,1.602,0.868,1.602,0.868
			s-0.56,0.4-1.648,0.942l-1.12,47.029c1.721,0.809,2.767,1.296,2.767,1.296v15.036l-3.116-1.567l-0.459,19.134
			c1.157,0.115,2.345,0.175,3.575,0.175c1.23,0,2.423-0.055,3.575-0.161l-0.996-41.773L422.48,1117.673z"/>
		<path style="fill:#1B6C77;" d="M419.084,1139.467l-0.459,19.134c-22.286-2.205-31.308-24.573-31.308-24.573l2.87-15.589
			L419.084,1139.467z"/>
		<polygon style="fill:#259198;" points="433.318,1004.987 422.48,1020.298 421.014,938.162 		"/>
		<polygon style="fill:#1B6C77;" points="426.56,1191.618 417.841,1191.618 418.625,1158.601 419.084,1139.467 419.433,1124.702 
			420.553,1077.673 420.599,1075.863 422.201,1008.496 422.48,1020.247 422.48,1020.298 423.132,1047.651 423.44,1060.519 
			424.293,1096.435 424.78,1116.841 425.776,1158.615 		"/>
	</g>
	<path style="fill:#588684;" d="M1163.794,896.408l-24.809-76.417c0,0-8.422,38.089-16.708,76.417H1163.794z"/>
	<g>
		<path style="fill:#79536B;" d="M1073.364,1411.62l0.764,31.867c37.116-3.673,52.143-40.926,52.143-40.926l-2.95-16.022
			L1073.364,1411.62z"/>
		<polygon style="fill:#A77697;" points="1047.682,1198.382 1067.708,1213.149 1068.174,1087.087 		"/>
		<path style="fill:#79536B;" d="M1068.174,1414.229v-25.042c0,0,1.743-0.811,4.609-2.158l-1.865-78.325
			c-1.811-0.903-2.744-1.569-2.744-1.569s0.994-0.536,2.668-1.446c6.78-3.703,27.6-4.104,36.772-10.309l-12.553-64.188
			c-9.88,16.816-25.787,8.515-25.787,8.515s24.192-8.128,25.77-8.602l-5.88-30.069l-13.727,2.288l12.229-10.421l-19.491-105.816
			l-0.466,125.977v0.084h-22.747l-6.191,33.627l27.853,11.928l1.551,0.666v21.554l-2.064-0.788l-1.422,59.817
			c1.911,0.689,3.019,1.087,3.019,1.087v34.285l-3.829-1.385l-1.659,69.572c1.919,0.176,3.906,0.268,5.954,0.268
			c2.049,0,4.028-0.099,5.954-0.291l-0.764-31.867L1068.174,1414.229z"/>
		<path style="fill:#79536B;" d="M1036.981,1258.587l-5.156,27.145c-0.554-1.135,33.83,13.537,33.83,13.537
			s-23.608,7.367-33.83-13.537l-7.562,39.812c13.575,4.805,33.027,11.76,40.426,14.407l1.422-59.817L1036.981,1258.587z"/>
		<path style="fill:#79536B;" d="M1109.593,1311.979c-19.918,4.338-33.249-0.551-38.675-3.275l0.932,39.163
			c-0.443-0.255,42.322-11.007,42.322-11.007s-17.726,25.152-42.322,11.007l0.932,39.163c10.8-5.042,37.552-17.583,46.556-22.104
			L1109.593,1311.979z"/>
		<path style="fill:#79536B;" d="M1013.82,1382.27l49.295,23.694l0.764-32.025l-42.696-31.663l-11.098,60.286
			c0,0,13.575,37.391,52.136,40.949l0.895-37.547C1063.114,1405.964,1029.456,1418.617,1013.82,1382.27z"/>
		<polygon style="fill:#0C3C5F;" points="1060.913,1498.477 1075.435,1498.477 1074.128,1443.488 1073.364,1411.62 
			1072.783,1387.03 1070.918,1308.704 1070.842,1305.69 1068.174,1193.493 1067.708,1213.064 1067.708,1213.149 1066.623,1258.704 
			1066.11,1280.135 1064.688,1339.952 1063.879,1373.938 1062.22,1443.511 		"/>
	</g>
	<g>
		<path style="fill:#473D63;" d="M1234.483,1174.589l-38.44,14.666l1.747,73.499c9.091-3.253,31.293-21.024,47.973-26.928
			L1234.483,1174.589z M1198.785,1210.765l39.705-14.423C1238.49,1196.342,1226.849,1226.314,1198.785,1210.765z"/>
		<path style="fill:#473D63;" d="M1142.614,1228.383l-4.154,22.57l50.624,11.801c0,0-31.984,13.555-50.624-11.801l-7.82,42.487
			c11.063,5.556,43.934,20.965,57.204,27.16l2.292-96.241C1183.467,1227.706,1167.088,1233.713,1142.614,1228.383z"/>
		<path style="fill:#473D63;" d="M1252.086,1270.167l-53.301,34.348l1.284,53.842l61.947-34.249c0,0-23.757,43.813-61.947,34.249
			l0.754,31.643c47.381-4.372,64.06-50.316,64.06-50.316L1252.086,1270.167z"/>
		<path style="fill:#554D76;" d="M1194.08,1306.216v-42.127c0,0,1.362-0.489,3.71-1.335l-1.747-73.499l-2.536,0.968v-26.483
			l1.906-0.818l34.223-14.657l-7.607-41.318h-27.95v-0.103l-3.001-167.981l-21.52,143.208l15.027,12.805l-16.867-2.811
			l-8.224,44.666l32.391,14.343v19.743l-35.535-17.006l-7.818,42.458c11.27,7.624,33.369,19.837,41.699,24.387
			c2.057,1.119,3.278,1.777,3.278,1.777s-1.146,0.818-3.372,1.927l-2.292,96.241c3.522,1.655,5.663,2.651,5.663,2.651v30.77
			l-6.377-3.206l-0.939,39.156c2.367,0.235,4.799,0.357,7.316,0.357c2.517,0,4.959-0.113,7.316-0.329l-2.038-85.486
			L1194.08,1306.216z"/>
		<g>
			<path style="fill:#473D63;" d="M1187.13,1350.816l-0.939,39.156c-45.606-4.513-64.07-50.287-64.07-50.287l5.874-31.901
				L1187.13,1350.816z"/>
			<polygon style="fill:#473D63;" points="1216.258,1075.614 1194.08,1106.947 1191.079,938.863 			"/>
			<polygon style="fill:#0C3C5F;" points="1202.429,1457.539 1184.585,1457.539 1186.191,1389.972 1187.13,1350.816 
				1187.844,1320.6 1190.135,1224.359 1190.229,1220.655 1193.507,1082.795 1194.08,1106.843 1194.08,1106.947 1195.413,1162.922 
				1196.043,1189.255 1197.79,1262.754 1198.785,1304.514 1200.823,1390 			"/>
		</g>
	</g>
	
		<linearGradient id="SVGID_00000071547851396961828350000017292204938393039550_" gradientUnits="userSpaceOnUse" x1="981.5289" y1="1590.9525" x2="981.5289" y2="1499.153">
		<stop  offset="0.0531" style="stop-color:#1B6C77"/>
		<stop  offset="0.259" style="stop-color:#1B6572"/>
		<stop  offset="0.5626" style="stop-color:#1A5164"/>
		<stop  offset="0.925" style="stop-color:#18314C"/>
		<stop  offset="1" style="stop-color:#182947"/>
	</linearGradient>
	<path style="fill:url(#SVGID_00000071547851396961828350000017292204938393039550_);" d="M1046.357,1564.028
		c0,9.609-2.108,18.722-5.849,26.925h-117.96c-3.751-8.202-5.848-17.316-5.848-26.925c0-7.657,1.326-14.998,3.76-21.823
		c2.187,0.693,4.78,1.1,7.808,1.1c3.266,0,10.797-1.02,13.557-4.914c-0.059-0.099-0.129-0.188-0.188-0.287
		c-5.928-0.476-11.964-2.486-16.447-6.211c2.266-3.972,8.013-12.135,11.041-15.523c8.036,8.787,29.678,38.482,30.351,38.561
		c0-0.059-16.81-34.421-20.699-45.109c3.305-2.189,6.818-4.071,10.509-5.627c1.009,6.895,5.475,19.316,7.346,22.04
		c4.146-4.101-3.951-19.079,0.696-24.56c3.889-0.842,11.473-2.434,15.599-2.523c-1.643,5.349-3.382,47.339-3.659,52.837
		c2.385-7.439,13.384-32.206,11.386-52.837c3.929,0.733,13.44,2.893,17.082,4.309c-1.712,2.714-7.069,11.952-10.423,16.608
		c7.541-1.595,15.856-9.772,19.448-12.298C1033.285,1518.985,1046.357,1539.976,1046.357,1564.028z"/>
	<g>
		
			<linearGradient id="SVGID_00000160156344676678636530000003285975499292738728_" gradientUnits="userSpaceOnUse" x1="1428.0391" y1="1600.8387" x2="1428.0391" y2="1050.1904">
			<stop  offset="0.0531" style="stop-color:#1B6C77"/>
			<stop  offset="0.259" style="stop-color:#1B6572"/>
			<stop  offset="0.5626" style="stop-color:#1A5164"/>
			<stop  offset="0.925" style="stop-color:#18314C"/>
			<stop  offset="1" style="stop-color:#182947"/>
		</linearGradient>
		<path style="fill:url(#SVGID_00000160156344676678636530000003285975499292738728_);" d="M1998.021,1061.45
			c-18.388-7.94-33.719-11.26-46.808-11.26c-67.233,0-70.083,81.319-139.068,81.319c-24.502,0-47.372-5.131-70.964-5.131
			c-82.641,0-106.827,69.709-159.404,94.92c-40.059,19.218-88.371,5.171-133.071,34.82c-25.552,16.949-34.903,50.521-62.78,64.399
			c-30.272,15.057-68.094,13.502-99.781,26.32c-25.264,10.223-36.991,37.861-60.533,48.966
			c-22.949,10.827-50.063,5.914-72.824,18.643c-65.412,36.583-33.409,48.5-126.193,96.842c-1.435,0.753-2.909,1.516-4.404,2.278
			c-38.792,19.862-141.71,50.977-164.134,87.272h1139.963V1061.45z"/>
		
			<linearGradient id="SVGID_00000122683932249443818860000015791268780436448919_" gradientUnits="userSpaceOnUse" x1="1428.0391" y1="1600.8387" x2="1428.0391" y2="1301.0198">
			<stop  offset="0.0475" style="stop-color:#0C3C5F"/>
			<stop  offset="0.4648" style="stop-color:#103658"/>
			<stop  offset="1" style="stop-color:#182947"/>
		</linearGradient>
		<path style="opacity:0.5;fill:url(#SVGID_00000122683932249443818860000015791268780436448919_);" d="M1998.021,1308.164
			c-48.777,33.754-102.029,61.214-163.022,61.214c-52.762,0-84.048-37.907-126.062-37.907c-58.048,0-46.461,101.727-187.629,101.727
			c-41.428,0-64.566-24.383-116.357-24.383c-176.823,0-105.687,103.913-246.108,103.913c-9.91,0-19.881-0.312-29.83-0.312
			c-96.912,0-56.221,61.636-160.401,61.636c-19.829,0-39.737-4.072-57.531-12.272c-24.059,12.034-44.44,25.166-53.023,39.059
			h1139.963V1308.164z"/>
	</g>
	<g>
		
			<linearGradient id="SVGID_00000064319759207959677620000007812210536087903659_" gradientUnits="userSpaceOnUse" x1="1687.0764" y1="1087.6196" x2="1687.0764" y2="724.8673">
			<stop  offset="0" style="stop-color:#47ACAA"/>
			<stop  offset="0.0266" style="stop-color:#45A8A7"/>
			<stop  offset="0.256" style="stop-color:#328E92"/>
			<stop  offset="0.4906" style="stop-color:#257B83"/>
			<stop  offset="0.7316" style="stop-color:#1E707A"/>
			<stop  offset="0.9888" style="stop-color:#1B6C77"/>
		</linearGradient>
		<path style="fill:url(#SVGID_00000064319759207959677620000007812210536087903659_);" d="M1998.021,729.059
			c-177.779,74.695-158.535,186.565-237.062,234.198c-34.571,20.97-84.976,5.548-122.784,18.359
			c-45.563,15.438-61.545,55.054-116.063,65.887c-52.688,10.47-108.12-11.857-145.98,40.117h621.889V729.059z"/>
		
			<linearGradient id="SVGID_00000176766272285688189120000006180043915377083573_" gradientUnits="userSpaceOnUse" x1="1795.4919" y1="1087.6196" x2="1795.4919" y2="859.864">
			<stop  offset="0" style="stop-color:#47ACAA"/>
			<stop  offset="0.0266" style="stop-color:#45A8A7"/>
			<stop  offset="0.256" style="stop-color:#328E92"/>
			<stop  offset="0.4906" style="stop-color:#257B83"/>
			<stop  offset="0.7316" style="stop-color:#1E707A"/>
			<stop  offset="0.9888" style="stop-color:#1B6C77"/>
		</linearGradient>
		<path style="opacity:0.42;fill:url(#SVGID_00000176766272285688189120000006180043915377083573_);" d="M1998.021,865.605
			c-75.686,48.315-70.334,186.221-186.33,169.877c-98.467-13.874-148.09,19.623-218.728,52.137h405.058V865.605z"/>
	</g>
	<g>
		
			<linearGradient id="SVGID_00000177473486028870723070000000924264376270367137_" gradientUnits="userSpaceOnUse" x1="299.9051" y1="1280.6758" x2="299.9051" y2="888.4171">
			<stop  offset="0" style="stop-color:#47ACAA"/>
			<stop  offset="0.0266" style="stop-color:#45A8A7"/>
			<stop  offset="0.256" style="stop-color:#328E92"/>
			<stop  offset="0.4906" style="stop-color:#257B83"/>
			<stop  offset="0.7316" style="stop-color:#1E707A"/>
			<stop  offset="0.9888" style="stop-color:#1B6C77"/>
		</linearGradient>
		<path style="fill:url(#SVGID_00000177473486028870723070000000924264376270367137_);" d="M3.958,1268.63l591.893,12.046
			c-73.852-92.266-158.839-87.058-171.98-92.193c-24.913-9.734-36.851-39.561-58.522-54.275
			c-24.768-16.816-55.361-16.825-80.249-33.161c-53.026-34.806-56.535-104.357-114.59-136.758
			C118.805,935.432,53.161,923.84,3.958,892.266V1268.63z"/>
		
			<linearGradient id="SVGID_00000028310837524589176390000013813609251753178541_" gradientUnits="userSpaceOnUse" x1="299.9051" y1="1280.6758" x2="299.9051" y2="1012.6491">
			<stop  offset="0" style="stop-color:#47ACAA"/>
			<stop  offset="0.0266" style="stop-color:#45A8A7"/>
			<stop  offset="0.256" style="stop-color:#328E92"/>
			<stop  offset="0.4906" style="stop-color:#257B83"/>
			<stop  offset="0.7316" style="stop-color:#1E707A"/>
			<stop  offset="0.9888" style="stop-color:#1B6C77"/>
		</linearGradient>
		<path style="opacity:0.42;fill:url(#SVGID_00000028310837524589176390000013813609251753178541_);" d="M3.958,1268.63
			l591.893,12.046c-8.924-11.148-18.01-20.861-27.112-29.354c-9.242,5.822-19.552,12.808-40.914,12.808
			c-34.276,0-92.575-26.551-123.131-24.768c-123.705,7.219-109.615-46.732-168.264-97.818
			c-23.443-20.421-64.333,5.052-89.416-11.583c-50.7-33.625-30.977-126.424-143.056-116.586V1268.63z"/>
	</g>
	<g>
		<path style="opacity:0.27;fill:#EC9976;" d="M1214.262,562.541c28.78-13.495,54.267-31.99,78.289-52.592
			C1247.877,513.516,1232.733,526.07,1214.262,562.541z"/>
		<path style="opacity:0.27;fill:#EC9976;" d="M1385.371,559.095c-34.395,16.24-65.154,39.686-98.494,57.811
			C1323.808,603.756,1365.56,598.544,1385.371,559.095z"/>
		<path style="opacity:0.27;fill:#EC9976;" d="M1286.517,617.106c0.121-0.065,0.24-0.134,0.36-0.2
			c-0.102,0.036-0.206,0.071-0.308,0.108C1286.552,617.044,1286.534,617.075,1286.517,617.106z"/>
		<path style="opacity:0.27;fill:#EC9976;" d="M1313.405,540.155c27.329-16.102,51.801-32.32,73.27-55.766
			C1355.808,493.584,1332.905,515.756,1313.405,540.155z"/>
		<path style="opacity:0.27;fill:#EC9976;" d="M1197.529,468.525c-42.906,3.227-65.603,36.213-98.065,58.944
			C1117.558,518.923,1192.911,488.44,1197.529,468.525z"/>
		<path style="opacity:0.27;fill:#EC9976;" d="M1446.469,640.703c-20.788,4.688-36.475,22.898-52.556,36.007
			C1414.638,668.477,1431.045,656.535,1446.469,640.703z"/>
		<path style="opacity:0.27;fill:#EC9976;" d="M1231.989,482.494c23.752-22.924,50.347-50.133,79.813-66.129
			C1271.35,427.598,1252.348,446.875,1231.989,482.494z"/>
		<path style="opacity:0.27;fill:#EC9976;" d="M1389.803,419.811c-26.898,14.15-53.052,30.949-78.146,48.081
			C1335.213,455.322,1373.969,442.546,1389.803,419.811z"/>
		<path style="opacity:0.27;fill:#EC9976;" d="M1491.664,525.269c-24.766,13.424-45.173,37.336-65.353,58.14
			C1447.464,563.549,1471.912,547.215,1491.664,525.269z"/>
		<path style="opacity:0.27;fill:#EC9976;" d="M1426.31,583.408c-3.535,3.319-6.989,6.725-10.302,10.284
			C1419.45,590.4,1422.877,586.948,1426.31,583.408z"/>
		<path style="opacity:0.27;fill:#EC9976;" d="M1490.066,563.366c-13.862,8.702-27.291,17.704-39.338,28.825
			c21.178-11.024,47.381-24.824,63.047-43.651C1505.266,552.343,1497.96,558.41,1490.066,563.366z"/>
	</g>
	<g style="opacity:0.43;">
		<path style="fill:#F9DFC0;" d="M634.148,1126.932c-4.003,0.458-8.147,0.655-12.405,0.655c-25.681,0-55.48-7.15-83.105-7.15
			c-19.699,0-38.292,3.635-53.5,16.091c0.116,0.928,0.232,1.857,0.349,2.785c9.907,5.619,19.605,7.016,29.558,7.016
			c9.854,0,19.958-1.37,30.764-1.37c20.464,0,27.626,7.027,51.225,7.027c23.24,0,50.518-6.167,63.288-6.167
			c8.065,0,15.693,1.281,23.167,1.281c7.786,0,15.405-1.39,23.18-7.063c-9.458-12.799-23.916-16.144-39.115-16.144
			C656.244,1123.892,644.524,1125.744,634.148,1126.932z"/>
		<path style="fill:#F9DFC0;" d="M834.288,1219.801c-4.665-0.363-9.335-0.502-14.01-0.502c-13.338,0-131.051,0.034-131.051,13.493
			c0,3.304,7.956,12.271,23.077,12.271c14.193,0,22.148-4.741,42.099-4.741c31.039,0,67.35,7.797,100.994,7.797
			c18.275,0,35.763-2.3,51.191-9.4C891.118,1215.84,858.599,1221.691,834.288,1219.801z"/>
		<path style="fill:#F9DFC0;" d="M907.256,1263.626c-22.691,1.542-57.397,1.958-80.846,10.2
			c6.029,7.733,22.127,11.084,32.749,11.084c15.501,0,31.548-4.443,46.938-4.443c14.494,0,30.47,3.431,45.689,3.431
			c7.925,0,15.645-0.931,22.842-3.761c-7.711-14.85-24.107-18.069-40.699-18.069
			C924.597,1262.068,915.203,1263.086,907.256,1263.626z"/>
		<path style="fill:#F9DFC0;" d="M506.975,1315.8c-5.622,0.626-11.357,0.852-17.159,0.852c-15.092,0-30.636-1.53-45.814-1.53
			c-8.985,0-17.841,0.536-26.399,2.243c7.946,9.598,25.82,10.999,41.523,10.999c6.474,0,12.579-0.238,17.467-0.238
			c14.819,0,53.387,2.529,84.529,2.529c26.797,0,52.806-1.686,70.046-7.793c-10.081-12.626-27.846-16.517-47.507-16.517
			C556.692,1306.344,526.154,1313.664,506.975,1315.8z"/>
		<path style="fill:#F9DFC0;" d="M883.281,1362.756c-11.782-0.475-27.702-1.341-44.677-1.341c-33.121,0-70.262,3.294-88.532,19.204
			c5.697,6.44,12.86,8.447,20.544,8.447c15.791,0,22.051-5.846,47.513-5.846c30.124,0,72.185,6.739,105.218,6.739
			c15.021,0,28.175-1.393,37.492-5.447c-0.024-0.803-0.06-1.606-0.06-2.409c0-0.275,0.004-0.55,0.015-0.825
			C937.966,1366.294,909.825,1363.827,883.281,1362.756z"/>
		<path style="fill:#F9DFC0;" d="M758.193,1409.712c-38.978,1.457-64.107-1.63-102.235,7.433c-0.016,0.26-0.024,0.515-0.024,0.767
			c0,15.711,30.87,15.713,46.466,15.713c11.555,0,23.211-2.359,34.701-2.359c18.972,0,52.337,7.108,80.494,7.108
			c15.886,0,30.759-2.186,42.18-8.975c-23.447-16.934-50.328-20.242-78.041-20.242
			C773.934,1409.155,766.068,1409.417,758.193,1409.712z"/>
		<path style="fill:#F9DFC0;" d="M738.388,1544.319c-0.305,0.003-0.614,0.004-0.926,0.004c-21.666,0-60.159-6.908-93.819-6.908
			c-22.425,0-42.706,3.066-54.438,13.283c14.458,22.417,36.733,24.535,61.675,24.535c50.775,0,163.034-7.475,180.264-23.585
			c-9.049-9.768-22.054-12.588-36.211-12.588C775.891,1539.061,754.768,1544.162,738.388,1544.319z"/>
		<path style="fill:#F9DFC0;" d="M1025.625,1675.362c-12.724,1.085-27.082,1.272-42.139,1.272c-7.929,0-16.053-0.052-24.234-0.052
			c-39.655,0-80.668,1.219-107.521,15.477c0.164,1.752,0.327,3.504,0.49,5.256c15.123,8.699,32.879,10.773,51.076,10.773
			c16.589,0,33.545-1.724,49.208-1.724c35.388,0,84.719,11.624,127.371,11.624c19.785,0,38.585-2.44,54.963-9.553
			c-12.889-23.816-65.693-33.496-98.317-33.496C1032.556,1674.941,1028.887,1675.084,1025.625,1675.362z"/>
		<path style="fill:#F9DFC0;" d="M1515.474,1676.353c-25.287-1.096-52-6.066-76.283-6.066c-23.423,0-46.385,4.846-69.926,4.846
			c-4.974,0-9.959-0.178-14.899-0.178c-10.859,0-21.5,0.858-31.309,6.349c4.349,23.47,30.581,25.512,51.784,25.512
			c5.023,0,6.184-0.073,11.552-0.073c10.443,0,29.256,0.238,51.174,0.238c52.52,0,122.869-1.364,138.623-10.628
			C1561.793,1677.066,1538.317,1677.343,1515.474,1676.353z"/>
		<path style="fill:#F9DFC0;" d="M1315.576,1742.723c-2.066,0.069-4.191,0.101-6.368,0.101c-25.491,0-58.243-4.349-88.974-4.349
			c-26.053,0-50.653,3.126-68.143,14.677c9.72,32.697,140.184,33.251,170.394,33.251c31.083,0,59.84-2.702,73.456-11.615
			c-3.31-26.291-50.637-32.14-75.631-32.14C1318.624,1742.648,1317.039,1742.675,1315.576,1742.723z"/>
		<path style="fill:#F9DFC0;" d="M1210.679,1856.643c-0.939,0.008-1.877,0.012-2.813,0.012c-46.389,0-54.697-7.628-97.132-7.628
			c-18.46,0-37.275,2.099-37.275,10.485c0,4.891,8.745,21.285,49.205,21.285c6.773,0,13.438-0.274,19.52-0.274
			c18.786,0,67.491,6.184,114.76,6.184c41.232,0,80.444-4.756,94.026-22.6c-7.367-9.749-27.955-12.548-51.778-12.548
			C1267.62,1851.558,1230.369,1856.473,1210.679,1856.643z"/>
		<path style="fill:#F9DFC0;" d="M1741.102,1710.033c-4.735,0.803-9.617,1.134-14.602,1.134c-23.487,0-49.27-7.349-72.784-7.349
			c-12.609,0-24.565,2.113-35.164,8.605c4.208,13.244,30.395,14.617,49.095,14.617c4.889,0,9.266-0.094,12.605-0.094
			c12.799,0,46.47,3.27,79.413,3.27c30.543,0,60.644-2.802,73.833-13.576c-11.024-8.915-27.421-11.701-44.355-11.701
			C1772.01,1704.939,1754.327,1707.791,1741.102,1710.033z"/>
		<path style="fill:#F9DFC0;" d="M1891.52,1842.775c-36.058,9.944-102.243-0.183-138.949,12.439
			c13.445,11.976,32.769,15.31,53.258,15.31c25.61,0,53.402-5.263,73.431-5.263c12.386,0,27.659,1.709,42.496,1.709
			c12.967,0,25.601-1.305,35.686-6.197c-1.869-14.686-28.84-19.698-48.762-19.698
			C1901.579,1841.075,1895.374,1841.712,1891.52,1842.775z"/>
		<path style="fill:#F9DFC0;" d="M1049.375,995.806c-34.719,3.253-70.5,0.723-105.409,4.021c27.551,6.873,57.366,8.71,87.273,8.71
			c97.43,0,84.199-4.724,97.919-4.724c0.575,0,1.145,0.019,1.708,0.059c-16.734-7.309-34.74-9.6-52.803-9.6
			C1068.456,994.272,1058.832,994.92,1049.375,995.806z"/>
		<path style="fill:#F9DFC0;" d="M1428.39,992.834c-28.846-0.117-58.337-0.421-87.117-2.222c-0.043-0.058-0.086-0.116-0.13-0.173
			c18.032,8.055,61.095,13.477,98.087,13.477c20.552,0,39.231-1.674,50.701-5.499c-8.354-5.588-18.848-6.987-29.643-6.987
			c-10.819,0-21.94,1.405-31.511,1.405C1428.648,992.835,1428.519,992.835,1428.39,992.834z"/>
		<path style="fill:#F9DFC0;" d="M972.187,1083.97c-6.035,0.358-11.991,0.482-17.892,0.482c-13.397,0-26.512-0.64-39.635-0.64
			c-16.291,0-32.595,0.986-49.471,5.408c32.042,6.759,68.66,10.978,104.557,10.978c23.336,0,46.367-1.783,67.639-5.811
			c-17.829-6.826-37.848-10.657-57.006-10.657C977.627,1083.731,974.894,1083.81,972.187,1083.97z"/>
		<path style="fill:#F9DFC0;" d="M1361.098,1139.444c-0.179,0.001-0.359,0.001-0.539,0.001c-17.044,0-36.586-4.114-54.876-4.114
			c-9.752,0-19.148,1.169-27.619,4.755c19.857,8.664,44.601,11.8,69.439,11.8c22.276,0,44.627-2.523,63.595-5.843
			c-11.368-5.975-27.134-6.651-40.837-6.651C1367.067,1139.392,1363.985,1139.429,1361.098,1139.444z"/>
		<path style="fill:#F9DFC0;" d="M842.55,1133.5c-8.062-1.074-16.132-1.659-24.144-1.659c-18.562,0-36.811,3.136-53.92,10.578
			c5.301,2.486,17.661,3.611,32.265,3.611c27.664,0,63.382-4.037,74.427-10.504C861.685,1134.345,852.033,1134.764,842.55,1133.5z"
			/>
		<path style="fill:#F9DFC0;" d="M1310.628,1016.609c-10.205-0.677-20.443-1.195-30.661-1.195c-14.613,0-29.184,1.06-43.553,4.229
			c18.29,7.91,44.797,11.209,69.832,11.209c14.744,0,28.977-1.144,40.719-3.165
			C1336.127,1022.115,1322.833,1017.419,1310.628,1016.609z"/>
	</g>
	<g>
		
			<linearGradient id="SVGID_00000089564044448546596050000014490345045242343614_" gradientUnits="userSpaceOnUse" x1="568.118" y1="1435.6354" x2="568.118" y2="1376.3755">
			<stop  offset="0" style="stop-color:#47ACAA"/>
			<stop  offset="0.0266" style="stop-color:#45A8A7"/>
			<stop  offset="0.256" style="stop-color:#328E92"/>
			<stop  offset="0.4906" style="stop-color:#257B83"/>
			<stop  offset="0.7316" style="stop-color:#1E707A"/>
			<stop  offset="0.9888" style="stop-color:#1B6C77"/>
		</linearGradient>
		<path style="fill:url(#SVGID_00000089564044448546596050000014490345045242343614_);" d="M615.092,1435.635
			c-0.656-25.414-43.173-59.26-68.719-59.26c-25.546,0-25.228,33.846-25.228,59.26H615.092z"/>
		
			<linearGradient id="SVGID_00000179644923370086515330000007064810595141052091_" gradientUnits="userSpaceOnUse" x1="1654.0918" y1="1937.2823" x2="1654.0918" y2="1804.0214" gradientTransform="matrix(-1 0 0 1 3249.0339 0)">
			<stop  offset="0.0475" style="stop-color:#0C3C5F"/>
			<stop  offset="0.4648" style="stop-color:#103658"/>
			<stop  offset="1" style="stop-color:#182947"/>
		</linearGradient>
		<path style="fill:url(#SVGID_00000179644923370086515330000007064810595141052091_);" d="M1489.31,1937.282
			c1.476-57.149,97.085-133.261,154.532-133.261c57.447,0,56.732,76.112,56.732,133.261H1489.31z"/>
		
			<linearGradient id="SVGID_00000094585698394812515190000009168839682975767227_" gradientUnits="userSpaceOnUse" x1="1427.1432" y1="1820.9803" x2="1427.1432" y2="1747.7062" gradientTransform="matrix(-1 0 0 1 3249.0339 0)">
			<stop  offset="0.0475" style="stop-color:#0C3C5F"/>
			<stop  offset="0.4648" style="stop-color:#103658"/>
			<stop  offset="1" style="stop-color:#182947"/>
		</linearGradient>
		<path style="fill:url(#SVGID_00000094585698394812515190000009168839682975767227_);" d="M1741.968,1820.98
			c1.117-43.24,36.458-73.274,79.923-73.274s79.922,30.034,79.922,73.274H1741.968z"/>
		
			<linearGradient id="SVGID_00000021105905935420861150000014099180878295671447_" gradientUnits="userSpaceOnUse" x1="676.3907" y1="1519.7842" x2="676.3907" y2="1474.325">
			<stop  offset="0" style="stop-color:#47ACAA"/>
			<stop  offset="0.0266" style="stop-color:#45A8A7"/>
			<stop  offset="0.256" style="stop-color:#328E92"/>
			<stop  offset="0.4906" style="stop-color:#257B83"/>
			<stop  offset="0.7316" style="stop-color:#1E707A"/>
			<stop  offset="0.9888" style="stop-color:#1B6C77"/>
		</linearGradient>
		<path style="fill:url(#SVGID_00000021105905935420861150000014099180878295671447_);" d="M723.364,1519.784
			c-0.656-25.414-21.428-45.459-46.974-45.459c-25.546,0-46.974,20.045-46.974,45.459H723.364z"/>
		<path style="fill:#818E82;" d="M646.317,1087.62c-0.328-12.707-10.714-22.73-23.487-22.73c-12.773,0-23.487,10.023-23.487,22.73
			H646.317z"/>
		
			<linearGradient id="SVGID_00000044157619270628159030000016329140135539970466_" gradientUnits="userSpaceOnUse" x1="1299.2709" y1="1588.6027" x2="1513.0541" y2="1588.6027">
			<stop  offset="0.0531" style="stop-color:#1B6C77"/>
			<stop  offset="0.259" style="stop-color:#1B6572"/>
			<stop  offset="0.5626" style="stop-color:#1A5164"/>
			<stop  offset="0.925" style="stop-color:#18314C"/>
			<stop  offset="1" style="stop-color:#182947"/>
		</linearGradient>
		<path style="fill:url(#SVGID_00000044157619270628159030000016329140135539970466_);" d="M1513.054,1640.49
			c-13.812-50.692-61.581-103.774-115.381-103.774c-63.224,0-83.364,60.026-98.402,103.774H1513.054z"/>
		
			<linearGradient id="SVGID_00000124163478531109070570000001915349307953332145_" gradientUnits="userSpaceOnUse" x1="320.8101" y1="1272.4795" x2="446.8167" y2="1272.4795">
			<stop  offset="0" style="stop-color:#47ACAA"/>
			<stop  offset="0.0266" style="stop-color:#45A8A7"/>
			<stop  offset="0.256" style="stop-color:#328E92"/>
			<stop  offset="0.4906" style="stop-color:#257B83"/>
			<stop  offset="0.7316" style="stop-color:#1E707A"/>
			<stop  offset="0.9888" style="stop-color:#1B6C77"/>
		</linearGradient>
		<path style="fill:url(#SVGID_00000124163478531109070570000001915349307953332145_);" d="M446.817,1296.189
			c-9.756-26.132-41.922-47.418-71.186-47.418c-30.244,0-44.142,20.766-54.821,47.418H446.817z"/>
		<path style="fill:#818E82;" d="M1389.453,1019.08c9.382-3.049,13.32-8.061,13.32-13.479c0-11.583-17.961-25.009-39.008-25.009
			c-17.889,0-38.001,9.714-51.214,38.488H1389.453z"/>
		<path style="fill:#818E82;" d="M1523.023,1019.08c-16.374-18.365-35.289-33.22-48.883-33.22c-13.533,0-26.473,10.293-40.375,33.22
			C1433.765,1019.08,1521.712,1020.743,1523.023,1019.08z"/>
		<path style="fill:#818E82;" d="M591.742,1126.891c-14.859-29.051-34.477-42.97-54.625-42.97c-20.779,0-42.111,14.791-59.346,42.97
			H591.742z"/>
		<path style="fill:#818E82;" d="M737.73,1126.891c-20.497-20.254-38.804-33.776-55.479-33.776
			c-14.232,0-27.275,9.868-39.483,33.776H737.73z"/>
	</g>
	<g>
		
			<linearGradient id="SVGID_00000151544163287658205420000008000109223273166493_" gradientUnits="userSpaceOnUse" x1="621.3076" y1="2065.4531" x2="621.3076" y2="1154.9181">
			<stop  offset="0.0531" style="stop-color:#1B6C77"/>
			<stop  offset="0.259" style="stop-color:#1B6572"/>
			<stop  offset="0.5626" style="stop-color:#1A5164"/>
			<stop  offset="0.925" style="stop-color:#18314C"/>
			<stop  offset="1" style="stop-color:#182947"/>
		</linearGradient>
		<path style="fill:url(#SVGID_00000151544163287658205420000008000109223273166493_);" d="M3.958,1995.484h1234.698
			c-82.101-82.213-190.347-70.054-273.021-153.146c-29.381-29.53-56.298-51.254-81.463-67.728
			c-95.773-62.735-166.084-49.51-249.566-101.497c-30.608-19.059-27.57-58.366-49.668-83.657
			c-29.143-33.364-78.712-42.319-107.816-74.197c-32.281-35.345-29.767-88.649-60.444-125.876
			c-26.927-32.68-67.312-33.413-99.81-56.336c-46.679-32.938-56.041-99.13-133.724-99.13c-8.699,0-17.427,0.495-26.086,0.495
			c-81.525,0-90.759-78.114-153.1-79.464V1995.484z"/>
		
			<linearGradient id="SVGID_00000066513122779844192170000017969270148758498730_" gradientUnits="userSpaceOnUse" x1="-60.702" y1="1691.5621" x2="1288.4868" y2="1691.5621">
			<stop  offset="0.0475" style="stop-color:#0C3C5F"/>
			<stop  offset="0.4648" style="stop-color:#103658"/>
			<stop  offset="1" style="stop-color:#182947"/>
		</linearGradient>
		<path style="opacity:0.5;fill:url(#SVGID_00000066513122779844192170000017969270148758498730_);" d="M3.958,1995.484h1232.519
			c-81.83-79.851-188.897-68.631-270.841-150.989c-29.381-29.53-56.298-51.254-81.463-67.728
			c-59.574,83.32-160.205,125.48-254.751,124.529c-269.882-2.734-230.724-129.442-316.324-145.847
			C23.043,1699.852,48.03,1537.661,3.958,1387.64V1995.484z"/>
	</g>
	<g>
		<path style="fill:#79536B;" d="M467.86,1997.444c25.068-64.39,8.398-143.17-47.81-197.15
			c-72.958-70.066-184.873-71.805-249.968-3.884c-51.443,53.676-58.237,134.789-22.822,201.034H467.86z"/>
		<path style="fill:#79536B;" d="M312.161,1997.444c23.271-63.774,6.228-140.825-49.038-193.9
			c-72.958-70.066-184.873-71.805-249.968-3.884c-3.245,3.386-6.307,6.883-9.197,10.476v184.797l103.711,2.511H312.161z"/>
		<path style="fill:#79536B;" d="M574.586,1997.444c-9.871-24.569-25.168-47.738-45.807-67.559
			c-72.958-70.066-184.873-71.805-249.968-3.884c-19.718,20.574-32.853,45.187-39.591,71.442H574.586z"/>
		<path style="fill:#473D63;" d="M605.906,1997.444c-0.233-0.819-0.462-1.639-0.712-2.454c-2.006,0.71-4.302,1.547-6.789,2.454
			H605.906z"/>
		<path style="fill:#473D63;" d="M10.871,1975.99c7.844,7.533,16.258,14.102,25.094,19.719l71.706,1.736h96.518
			c1.724-1.045,3.437-2.115,5.129-3.231c1.004,1.014,2.033,2.028,3.061,3.015c0.076,0.073,0.155,0.143,0.232,0.216H552.51
			c10.698-22.204,38.967-18.196,44.986-20.611c-4.002-6.547-15.571-28.407-20.874-34.275
			c-28.177,39.219-62.705,59.256-70.316,46.898c-10.959-17.795,34.994-42.186,61.856-54.774
			c-8.37-6.086-27.289-16.282-36.568-20.062c-4.337-1.762-8.477-3.861-12.406-6.257c-2.388,11.023-8.065,21.565-16.884,30.766
			c-15.702,16.384-33.166-18.186,2.791-45.888c-6.382-8.708-21.354-25.979-24.065-36.717c-3.852,5.662-7.932,10.755-12.266,15.277
			c-19.724,20.58-58.908,22.931-90.147,15.583c27.124-19.431,69.163-29.953,100.114-41.453
			c-3.523-15.422-20.521-48.767-28.659-62.765c-24.495,29.135-76.576,80.193-90.505,54.909c-10.126-18.38,48-60.341,83.421-61.712
			c-10.173-8.092-41.745-34.608-53.134-39.839c-4.111,18.379-10.659,35.568-22.826,48.263c-5.846,6.1-13.002,11.166-21.796,14.811
			c-1.49-26.987,13.349-51.263,25.947-72.704c-18.103-4.67-45.112-6.049-63.592-4.273c-11.273,32.426-12.766,63.856-12.544,102.29
			c0.04,0.089,0.068,0.19,0.095,0.292l-0.087,0.091l-0.008-0.383c-11.149-35.512-13.937-67.224-6.751-99.22
			c-7.406,1.623-14.724,3.806-21.866,6.509c-13.472,5.108-29.759,10.186-52.78-3.344c9.813,37.444-15.016,74.012-26.749,108.875
			c-4.86-14.053,4.298-79.751,14.34-116.789c-12.467-5.515-40.736-16.077-53.963-18.217c-17.731,34.833,22.714,69.393,11.34,119.977
			c-4.418-7.522-29.071-85.143-35.017-122.065c-16.977-0.21-48.093,2.487-66.344,12.59c-8.07,27.967,66.592,82.843,66.751,82.939
			c-32.821-3.234-89.101-48.773-86.21-71.878c-11.341,6.98-21.973,15.492-31.617,25.554c-0.687,0.717-1.374,1.459-2.048,2.189
			c28.51,55.891,88.922,59.964,90.045,66.813c-16.11,9.564-69.636-10.046-90.213-38.691v36.37
			c15.888,10.154,68.255,30.782,85.35,23.21c0.381,0.29,0.761,0.581,1.142,0.871c-1.149,5.34-2.4,10.071-6.49,14.338
			c-25.622,26.734-75.023-32.013-80.002-38.159v152.089C6.189,1971.327,8.492,1973.705,10.871,1975.99z M446.26,1903.372
			c-1.503,9.471-4.958,16.615-9.648,21.508c-11.62,12.125-30.818,10.429-46.657-3.933
			C390.211,1920.943,422.897,1925.866,446.26,1903.372z M247.505,1769.695c7.876,13.446-2.205,33.504,34.332,68.593
			c1.715,1.647,3.503,2.988,5.257,3.508c-14.677,1.429-26.443-3.102-34.642-10.976
			C237.367,1816.333,234.357,1790.527,247.505,1769.695z"/>
		<path style="fill:#79536B;" d="M254.316,1699.795c12.756,12.746,17.924,35.192,6.621,46.986"/>
		<path style="fill:#79536B;" d="M46.747,1710.299c-2.571-11.557-9.549-22.204-18.417-30.721c0.078,0.705,0.101,1.406,0.084,2.106
			c-0.084,3.48-1.151,6.903-1.235,10.389C26.82,1706.954,37.495,1707.692,46.747,1710.299
			C46.747,1710.299,40.033,1708.4,46.747,1710.299z"/>
		<path style="fill:#79536B;" d="M147.141,1863.182c4.854-1.725,11.868-6.187,17.264-11.817c7.238-7.552,11.563-17.205,3.857-25.175
			"/>
		<path style="fill:#79536B;" d="M315.213,1853.719c17.304-23.628,10.051-40.21-0.813-63.5"/>
		<path style="fill:#79536B;" d="M468.665,1899.715c12.298-3.278,29.88-8.022,39.704-18.273c4.345-4.534,7.173-10.145,7.355-17.183
			c-13.874,3.363-26.373,10.608-36.115,20.774C475.413,1889.411,471.728,1894.331,468.665,1899.715z"/>
		<path style="fill:#79536B;" d="M480.754,1957.87c-13.338-5.301-27.084-2.845-40.915-1.988"/>
		<path style="fill:#79536B;" d="M230.847,1845.325c-16.04-2.633-30.316,9.075-43.061,17.426"/>
		<path style="fill:#79536B;" d="M173.142,1741.058c15.375-28.071,8.534-48.972-5.145-75.767
			C160.229,1692.151,156.239,1716.913,173.142,1741.058z"/>
		<path style="fill:#79536B;" d="M102.879,1737.407c-9.147-26.027-18.043-42.417-37.057-60.677
			c-0.921-0.884-1.865-1.772-2.834-2.666c-2.904,17.293,10.096,37.428,24.546,51.305
			C92.683,1730.313,98.016,1734.463,102.879,1737.407z"/>
	</g>
	<g>
		<path style="fill:none;stroke:#182947;stroke-width:4;stroke-linecap:round;stroke-linejoin:round;stroke-miterlimit:10;" d="
			M694.504,1570.047c-2.594,12.413-3.781,24.6-3.781,36.594c0,114.362,66.831,108.728,66.831,258.472
			c0,42.734-5.47,85.61-9.015,128.708"/>
		<path style="fill:none;stroke:#182947;stroke-width:4;stroke-linecap:round;stroke-linejoin:round;stroke-miterlimit:10;" d="
			M736.382,1614.601c-8.142,24.374-17.643,49.745-17.643,74.499c0,14.735,3.366,29.252,12.389,43.211"/>
		<path style="fill:none;stroke:#182947;stroke-width:4;stroke-linecap:round;stroke-linejoin:round;stroke-miterlimit:10;" d="
			M779.56,1640.832c2.879,12.683,4.353,25.05,4.353,37.064c0,33.472-11.443,64.204-35.82,91.41"/>
		<path style="fill:none;stroke:#182947;stroke-width:4;stroke-linecap:round;stroke-linejoin:round;stroke-miterlimit:10;" d="
			M753.451,1640.832c2.989,28.293,7.012,51.326,25.104,74.237"/>
		<path style="fill:none;stroke:#182947;stroke-width:4;stroke-linecap:round;stroke-linejoin:round;stroke-miterlimit:10;" d="
			M773.961,1736.594c32.047-17.261,37.814-47.409,39.94-80.898"/>
		<path style="fill:none;stroke:#182947;stroke-width:4;stroke-linecap:round;stroke-linejoin:round;stroke-miterlimit:10;" d="
			M651.377,1612.33c-0.256,3.523-0.381,6.99-0.381,10.402c0,58.99,37.483,101.385,87.317,129.209"/>
		<path style="fill:none;stroke:#182947;stroke-width:4;stroke-linecap:round;stroke-linejoin:round;stroke-miterlimit:10;" d="
			M674.315,1590.786c-5.03,20.611-11.332,41.719-11.332,62.389c0,12.811,2.421,25.453,9.066,37.704"/>
		<path style="fill:none;stroke:#182947;stroke-width:4;stroke-linecap:round;stroke-linejoin:round;stroke-miterlimit:10;" d="
			M643.133,1740.522c11.261-3.801,23.323-5.554,35.465-5.554c16.131,0,32.406,3.094,47.137,8.593"/>
		<path style="fill:none;stroke:#182947;stroke-width:4;stroke-linecap:round;stroke-linejoin:round;stroke-miterlimit:10;" d="
			M687.481,1783.631c44.446,33.83,16.435,52.896,67.872,120.704"/>
		<path style="fill:none;stroke:#182947;stroke-width:4;stroke-linecap:round;stroke-linejoin:round;stroke-miterlimit:10;" d="
			M646.046,1811.794c34.439,14.986,66.212,34.739,89.354,64.379"/>
		<path style="fill:none;stroke:#182947;stroke-width:4;stroke-linecap:round;stroke-linejoin:round;stroke-miterlimit:10;" d="
			M867.469,1745.18c-23.747,29.561-17.519,60.529-107.135,116.634"/>
		<path style="fill:none;stroke:#182947;stroke-width:4;stroke-linecap:round;stroke-linejoin:round;stroke-miterlimit:10;" d="
			M825.086,1739.264c-12.149,30.133-16.026,61.563-22.371,93.108"/>
		<path style="fill:none;stroke:#182947;stroke-width:4;stroke-linecap:round;stroke-linejoin:round;stroke-miterlimit:10;" d="
			M781.738,1991.955c15.996-81.278,54.941-121.855,110.899-179.485"/>
		<path style="fill:none;stroke:#182947;stroke-width:4;stroke-linecap:round;stroke-linejoin:round;stroke-miterlimit:10;" d="
			M886.418,1864.188c-35.05,17.492-60.563,35.502-83.142,67.914"/>
		<path style="fill:none;stroke:#182947;stroke-width:4;stroke-linecap:round;stroke-linejoin:round;stroke-miterlimit:10;" d="
			M729.436,1992.116c-19.445-53.061-30.419-72.415-82.586-98.674"/>
		<path style="fill:none;stroke:#182947;stroke-width:4;stroke-linecap:round;stroke-linejoin:round;stroke-miterlimit:10;" d="
			M698.882,1929.966c-10.672-27.872-26.985-43.978-53.356-57.879"/>
	</g>
	<g>
		<path style="fill:#79536B;" d="M636.814,1884.778c-4.188,3.781-5.816,8.145-5.816,12.828c0,19.734,10.869,17.666,12.051,17.666
			c12.171,0,19.653-11.133,19.653-21.9c0-8.251-4.363-15.484-11.802-15.484C646.992,1877.889,642.234,1879.885,636.814,1884.778z"/>
		<path style="fill:#A77697;" d="M804.891,1640.191c-12.689-4.523-29.625-8.86-42.987-8.86c-16.883,0-59.103,2.607-59.103,19.471
			c0,10.397,19.269,29.259,60.431,29.259c18.767,0,55.543-3.458,55.543-22.337C818.775,1650.532,813.442,1643.239,804.891,1640.191z
			"/>
		<path style="fill:#A77697;" d="M730.637,1743.773c-28.476,0.158-59.803,8.371-59.803,37.287c0,17.567,12.098,35.82,31.048,35.82
			c25.463,0,51.982-28.533,51.982-50.939c0-12.485-8.549-22.343-30.307-22.343c-2.629,0-5.45,0.144-8.473,0.444"/>
		<path style="fill:#A77697;" d="M691.038,1558.241c-20.342-7.601-71.304,8.89-82.438,30.052
			c-6.718,12.768,3.199,23.098,15.92,29.804c29.667,15.64,82.987,3.784,94.916-18.888c7.202-13.689,3.846-25.777-11.884-34.07
			C702.031,1562.229,695.915,1560.064,691.038,1558.241z"/>
		<path style="fill:#79536B;" d="M797.428,1708.766c0.758,3.378,1.912,6.601,3.395,9.66c13.513,27.875,53.296,43.47,76.942,31.984
			c16.497-8.014,18.212-28.481,10.172-45.066c-11.288-23.283-46.044-38.581-69.857-27.013c-4.758,2.311-9.085,5.696-12.712,10.309
			C800.635,1694.66,795.756,1701.314,797.428,1708.766z"/>
		<path style="fill:#79536B;" d="M855.543,1886.506c-12.294-26.918-44.235-37.766-73.078-37.766
			c-22.367,0-60.139,8.274-60.139,31.158c0,16.29,14.921,24.863,31.071,24.863c11.57,0,23.204-4.037,35.047-4.037
			c27.413,0,41.587,26.911,60.581,26.911c10.583,0,18.019-9.249,18.019-19.667c0-2.135-0.312-4.319-0.974-6.483
			C864.003,1894.729,858.421,1892.808,855.543,1886.506z"/>
		<path style="fill:#79536B;" d="M667.899,1806.564c-5.178-1.62-11.64-2.401-18.688-2.401c-25.053,0-67.629,10.879-67.629,36.285
			c0,14.166,11.026,31.247,31.075,31.247c20.131,0,33.686-18.441,51.137-27.866c7.615-4.113,32.944-0.98,32.944-14.074
			c0-7.179-6.418-13.862-12.831-17.287C678.901,1809.792,673.291,1808.251,667.899,1806.564z"/>
		<path style="fill:#79536B;" d="M641.093,1714.656c-23.26,4.304-50.598,27.216-50.598,50.961c0,13.947,7.791,29.098,22.635,29.098
			c21.472,0,23.186-21.62,32.931-34.014c5.671-7.213,30.727-14.646,30.727-26.627c0-11.229-19.331-19.773-31.622-19.773
			C643.788,1714.3,642.426,1714.409,641.093,1714.656z"/>
		<path style="fill:#79536B;" d="M917.531,1802.406c-5.078-4.46-14.57-28.169-44.99-28.169c-12.178,0-18.977,7.592-18.977,16.098
			c0,27.603,27.82,35.089,37.981,52.267c6.971,11.785,6.613,40.425,23.993,40.425c13.618,0,25.389-24.436,25.389-40.089
			C940.926,1826.443,930.857,1814.109,917.531,1802.406z"/>
	</g>
	<g>
		<path style="fill:#473D63;" d="M633.226,1649.833c-0.414-1.326-19.222-13.584-35.661-13.584c-2.909,0-6.029,0.138-9.805,0.138
			c-2.949,0-6.297-0.084-10.257-0.384c10.412,12.981,20.836,17.824,33.078,17.824
			C617.451,1653.826,624.893,1652.301,633.226,1649.833z"/>
		<path style="fill:#473D63;" d="M652.186,1633.225c-2.062-38.119-37.167-40.99-38.396-41.961
			C615.213,1615.838,630.303,1625.412,652.186,1633.225z"/>
		<path style="fill:#473D63;" d="M688.329,1604.756c12.34-9.75,30.598-30.72,30.598-41.218c0-2.235-1.01-3.372-2.686-3.372
			c-4.345,0-13.162,7.645-20.45,23.637C692.714,1590.554,690.728,1597.748,688.329,1604.756z"/>
		<path style="fill:#473D63;" d="M664.629,1602.977c0.027-0.837,0.041-1.672,0.041-2.506c0-20.4-8.28-39.405-28.541-46.621
			c-0.399,0.181-0.798,0.362-1.197,0.543c-0.241,2.009-0.361,4.018-0.361,6.014C634.571,1579.301,645.273,1597.064,664.629,1602.977
			z"/>
		<path style="fill:#473D63;" d="M733.36,1622.549c16.674-10.013,22.321-25.377,27.934-43.185c-2.267-0.548-4.363-0.806-6.299-0.806
			c-17.401,0-21.886,20.763-21.886,37.242C733.108,1618.163,733.2,1620.437,733.36,1622.549z"/>
		<path style="fill:#473D63;" d="M751.135,1656.95c0.028,0.018,0.056,0.035,0.084,0.053c11.573-9.064,29.422-22.17,29.422-38.818
			c0-0.435-0.012-0.872-0.037-1.312c0.034-0.025,0.063-0.055,0.088-0.089c-1.257-0.567-2.514-0.83-3.761-0.83
			c-13.457,0-25.801,30.635-25.801,40.655C751.13,1656.726,751.132,1656.839,751.135,1656.95z"/>
		<path style="fill:#473D63;" d="M731.582,1654.578c-12.581-27.012-30.383-30.532-32.776-33.693
			c-0.894,1.742-1.301,3.545-1.301,5.371c0,13.542,22.36,28.323,33.896,28.323C731.462,1654.579,731.522,1654.578,731.582,1654.578z
			"/>
		<path style="fill:#473D63;" d="M796.758,1667.626c6.577-1.071,41.308-30.482,41.308-42.033c0-0.665-0.115-1.271-0.358-1.809
			c0.045,0.012,0.094,0.027,0.14,0.027c0.018,0,0.037-0.002,0.054-0.008c-0.924-0.092-1.829-0.137-2.715-0.137
			C813.46,1623.666,802.652,1650.625,796.758,1667.626z"/>
		<path style="fill:#473D63;" d="M648.631,1730.496c-9.767-16.749-21.19-30.272-42.247-30.375
			C614.183,1719.124,627.335,1730.205,648.631,1730.496z"/>
		<path style="fill:#473D63;" d="M613.673,1747.697c-5.704-0.82-11.64-1.314-17.592-1.314c-27.827,0-32.499,8.871-37.594,9.331
			c5.452,3.956,11.464,5.538,17.648,5.538C589.092,1761.253,602.799,1754.306,613.673,1747.697z"/>
		<path style="fill:#473D63;" d="M616.043,1773.201c-0.066-0.038-0.132-0.076-0.199-0.114
			c-20.088,6.901-32.456,15.359-46.986,30.544C587.626,1801.465,605.773,1788.956,616.043,1773.201z"/>
		<path style="fill:#473D63;" d="M613.673,1831.919c-6.756-1.827-13.373-3.602-20.355-3.602c-9.608,0-46.905,9.202-50.711,17.851
			c3.58,4.043,9.358,5.663,16.162,5.663C577.396,1851.831,603.714,1839.694,613.673,1831.919z"/>
		<path style="fill:#473D63;" d="M622.56,1847.34c-9.669,11.096-16.649,28.448-18.592,43.015c-0.192,0.132-0.385,0.264-0.577,0.396
			c11.533-7.504,19.246-27.226,19.246-41.086C622.638,1848.869,622.612,1848.093,622.56,1847.34z"/>
		<path style="fill:#473D63;" d="M647.446,1821.836c2.479-6.475,4.852-14.247,4.852-21.555c0-6.49-1.871-12.614-7.201-17.141
			c-0.857,0.17-1.714,0.34-2.571,0.509c-3.122,4.967-4.457,9.825-4.457,14.591C638.069,1806.349,641.935,1814.189,647.446,1821.836z
			"/>
		<path style="fill:#473D63;" d="M681.219,1788.028c-15.511-0.618-22.41-8.95-33.96-12.64c3.121-0.874,6.199-1.3,9.181-1.3
			C666.56,1774.089,675.554,1779.004,681.219,1788.028z"/>
		<path style="fill:#473D63;" d="M706.697,1773.201c-13.269-7.631-18.327-17.215-25.64-29.614
			C697.533,1746.524,704.565,1757.464,706.697,1773.201z"/>
		<path style="fill:#473D63;" d="M721.51,1773.201c-1.351-5.409-2.338-12.241-2.338-19.202c0-14.271,4.152-29.082,17.838-33.269
			c1.426,5.611,2.229,11.283,2.229,16.816C739.238,1751.33,734.254,1764.249,721.51,1773.201z"/>
		<path style="fill:#473D63;" d="M729.805,1799.298c5.89,3.736,12.457,5.378,19.07,5.378c11.774,0,23.692-5.209,32.182-13.085
			c-0.206-0.687-0.412-1.373-0.618-2.06c-4.464-1.51-8.915-2.167-13.33-2.167C754.165,1787.365,741.534,1793.006,729.805,1799.298z"
			/>
		<path style="fill:#473D63;" d="M813.941,1711.517c-8.495-2.758-23.35-7.457-32.875-7.457c-2.322,0-4.678,0.909-6.969,0.909
			c-0.565,0-1.126-0.055-1.682-0.193c8.492,6.639,16.867,10.844,25.903,10.844C803.283,1715.619,808.448,1714.35,813.941,1711.517z"
			/>
		<path style="fill:#473D63;" d="M824.014,1712.11c-2.8-3.868-4.085-9.37-4.085-15.212c0-10.92,4.489-23.026,11.966-27.861
			c0.561,3.856,0.847,7.545,0.847,11.121C832.742,1691.334,829.948,1701.417,824.014,1712.11z"/>
		<path style="fill:#473D63;" d="M847.714,1713.296c-0.011-0.556-0.016-1.111-0.016-1.664c0-18.133,5.845-34.674,23.578-41.765
			c1.309,0.721,2.618,1.442,3.927,2.163c0.131,1.328,0.194,2.619,0.194,3.873C875.396,1693.457,862.938,1703.942,847.714,1713.296z"
			/>
		<path style="fill:#473D63;" d="M866.082,1737.614c1.882,1.313,4.247,1.868,6.86,1.868c9.463,0,22.188-7.282,27.1-12.266
			c-0.007,0.038-0.014,0.075-0.022,0.113c-2.261-3.602-5.299-5.007-8.655-5.007C882.176,1722.322,870.604,1732.854,866.082,1737.614
			z"/>
		<path style="fill:#473D63;" d="M889.19,1789.215c-5.794-2.383-9.156-12.723-9.156-22.041c0-6.307,1.54-12.145,4.909-14.732
			c6.426,4.712,9.112,11.568,9.112,18.857C894.054,1777.294,892.236,1783.583,889.19,1789.215z"/>
		<path style="fill:#473D63;" d="M895.115,1819.464c12.431-6.571,28.196-23.045,44.258-23.045c3.03,0,6.07,0.586,9.101,1.935
			c-3.071,17.432-22.84,22.13-39.699,22.13C903.8,1820.484,899.079,1820.075,895.115,1819.464z"/>
		<path style="fill:#473D63;" d="M916.445,1845.561c8.149,10.628,19.375,23.564,32.407,27.094c0.941-1.618,1.882-3.236,2.822-4.854
			C946.906,1854.58,929.295,1848.842,916.445,1845.561z"/>
		<path style="fill:#473D63;" d="M877.932,1809.974c-7.658-3.159-19.804-7.486-30.464-7.486c-6.367,0-12.205,1.544-16.24,5.802
			c0.181,0.482,0.362,0.964,0.543,1.447c6.972,2.925,13.803,4.06,20.681,4.06C860.766,1813.797,869.149,1812.137,877.932,1809.974z"
			/>
		<path style="fill:#473D63;" d="M789.056,1869.878c-2.605-3.615-5.192-15.114-5.192-25.324c0-7.436,1.388-17.767,8.78-17.767
			c6.966,0,9.092,8.388,9.092,16.066c0,4.418-0.704,8.601-1.594,10.814C797.568,1860.07,794.256,1865.494,789.056,1869.878z"/>
		<path style="fill:#473D63;" d="M770.688,1871.658c-0.064,0.052-0.128,0.105-0.192,0.157c-1.675-8.643-8.458-31.784-20.944-31.784
			c-0.63,0-1.275,0.059-1.934,0.182C747.648,1856.045,756.009,1866.273,770.688,1871.658z"/>
		<path style="fill:#473D63;" d="M736.322,1875.809c-5.726-0.828-11.331-1.068-16.903-1.068c-7.365,0-14.673,0.418-22.125,0.448
			c3.949,6.031,10.193,8.381,16.831,8.381C722.035,1883.57,730.506,1880.234,736.322,1875.809z"/>
		<path style="fill:#473D63;" d="M809.793,1888.265c-0.041-0.498-0.061-1.003-0.061-1.512c0-12.74,12.584-28.727,23.014-34.323
			c1.261,0.723,2.522,1.446,3.783,2.169c0.501,2.344,0.74,4.532,0.74,6.579C837.269,1875.75,825.186,1883.15,809.793,1888.265z"/>
		<path style="fill:#473D63;" d="M846.529,1903.093c4.934-0.928,9.529-1.355,13.972-1.355c9.368,0,18.062,1.897,27.844,4.994
			c0.078,0.377,0.156,0.754,0.234,1.13c-5.586,3.353-10.755,4.74-15.781,4.74C864.083,1912.602,855.8,1908.428,846.529,1903.093z"/>
		<path style="fill:#473D63;" d="M644.483,1897.162c-0.045,0-0.09,0-0.135,0c-9.325,0-40.019,3.63-41.273,16.157
			c4.355,2.92,8.57,4.163,12.597,4.163C627.179,1917.481,637.153,1907.334,644.483,1897.162z"/>
		<path style="fill:#473D63;" d="M703.734,1942.238c-7.691-4.309-15.368-6.514-23.133-6.514c-6.591,0-13.246,1.589-20.029,4.829
			c0.051-0.052,0.101-0.105,0.152-0.157c5.75,4.586,12.962,6.319,20.372,6.319C688.918,1946.715,696.961,1944.783,703.734,1942.238z
			"/>
		<path style="fill:#473D63;" d="M756.468,1953.508c4.685-5.049,25.927-27.843,35.711-27.843c1.082,0,2.024,0.279,2.788,0.891
			C786.786,1939.887,770.589,1946.878,756.468,1953.508z"/>
		<path style="fill:#473D63;" d="M660.481,1678.302c-10.261-3.281-25.524-11.93-33.796-11.93c-2.229,0-4.687,0.398-6.864,0.398
			c-1.008,0-1.955-0.085-2.792-0.335c0.869,11.626,12.446,16.082,24.248,16.082C648.35,1682.517,655.503,1680.917,660.481,1678.302z
			"/>
		<path style="fill:#473D63;" d="M807.423,1774.98c1.024-1.947,1.48-3.858,1.48-5.727c0-14.1-25.996-25.727-30.399-31.23
			c-1.416,1.963-2.04,4.026-2.04,6.133C776.464,1756.746,798.725,1770.939,807.423,1774.98z"/>
		<path style="fill:#473D63;" d="M805.053,1968.928c2.513,0.177,5.124,0.284,7.781,0.284c10.163,0,20.978-1.573,29.383-6.868
			c-0.016,0.005-0.031,0.009-0.047,0.013c0.015-0.72,0.03-1.44,0.046-2.16c-3.611-3.106-7.403-4.36-11.234-4.36
			C821.936,1955.837,812.673,1962.828,805.053,1968.928z"/>
		<path style="fill:#473D63;" d="M694.847,1702.62c2.38-3.549,3.516-9.011,3.516-14.795c0-9.192-2.871-19.195-8.186-23.615
			c-3.247,2.289-4.464,6.036-4.464,10.368C685.713,1684.252,691.782,1696.843,694.847,1702.62z"/>
		<path style="fill:#473D63;" d="M739.285,1944.018c-0.725-11.942-14.518-32.92-28.603-32.92c-1.214,0-2.43,0.156-3.641,0.487
			C710.61,1929.307,724.094,1935.358,739.285,1944.018z"/>
	</g>
</g>
</svg>
